<?xml version="1.0" encoding="utf-8"?>
<!-- Generator: Adobe Illustrator 16.0.0, SVG Export Plug-In . SVG Version: 6.00 Build 0)  -->
<!DOCTYPE svg PUBLIC "-//W3C//DTD SVG 1.1//EN" "http://www.w3.org/Graphics/SVG/1.1/DTD/svg11.dtd">
<svg version="1.1" id="Layer_1" xmlns="http://www.w3.org/2000/svg" xmlns:xlink="http://www.w3.org/1999/xlink" x="0px" y="0px"
	 width="234px" height="216px" viewBox="0 0 234 216" enable-background="new 0 0 234 216" xml:space="preserve">
<g>
	<path fill="#95190C" d="M234,179.931v-31.292c-7.365,18.789-8.948,44.335-16.721,61.688C227.327,203.941,234,192.719,234,179.931z"
		/>
	<path fill="#95190C" d="M27.291,214.864c-1.432-2.292-2.658-4.792-3.601-7.49c-3.949-11.295-11.694-34.57-20.336-47.278
		c-0.991-1.458-2.121-2.952-3.353-4.473v24.309C0,196.81,11.617,210.969,27.291,214.864z"/>
	<path fill="#621967" d="M137.153,6.503c9.667-1.663,18.811-4.184,27.227-6.571H41.613c11.323,2.77,23.609,5.059,30.215,5.373
		C81.492,5.765,110.376,11.111,137.153,6.503z"/>
	<path fill="#621967" d="M196.976,214.509c-0.792,0.504-1.735,0.976-2.788,1.422H198c7.095,0,13.704-2.061,19.279-5.604
		c7.772-17.354,9.355-42.899,16.721-61.688v-21.042c-2.456,2.739-4.603,5.35-6.193,7.763
		C213.25,157.445,217.222,201.622,196.976,214.509z"/>
	<path fill="#621967" d="M23.689,207.374c0.943,2.698,2.169,5.198,3.601,7.49c2.79,0.693,5.706,1.067,8.709,1.067h11.208
		c-6.054-3.744-11.682-9.884-14.515-17.989c-3.574-10.224-10.584-31.291-18.407-42.794C10.851,150.096,5.651,144.594,0,138.923
		v16.699c1.232,1.521,2.362,3.015,3.353,4.473C11.996,172.803,19.741,196.079,23.689,207.374z"/>
	<path fill="#FFCF00" d="M136.586,9.603c14.143-2.433,27.145-6.758,38.276-9.671h-10.483c-8.416,2.387-17.56,4.908-27.227,6.571
		c-26.776,4.608-55.661-0.738-65.324-1.199C65.222,4.99,52.937,2.701,41.613-0.068H36c-1.211,0-2.407,0.062-3.587,0.179
		c12.885,3.887,32.053,7.912,40.845,8.331C82.627,8.888,110.628,14.07,136.586,9.603z"/>
	<path fill="#FFCF00" d="M14.285,155.148c7.823,11.503,14.833,32.57,18.407,42.794c2.833,8.105,8.461,14.245,14.515,17.989h9.583
		c-8.244-2.275-17.578-9.602-21.472-20.74c-3.464-9.911-10.261-30.334-17.845-41.485C13.42,147.744,6.829,141.133,0,134.369v4.555
		C5.651,144.594,10.851,150.096,14.285,155.148z"/>
	<path fill="#FFCF00" d="M194.581,211.251c-3.165,2.014-8.577,3.539-15.451,4.68h15.059c1.053-0.446,1.996-0.918,2.788-1.422
		c20.246-12.888,16.273-57.064,30.83-79.149c1.591-2.413,3.737-5.023,6.193-7.763v-4.415c-3.843,4.056-7.265,7.903-9.53,11.34
		C210.357,155.931,214.208,198.758,194.581,211.251z"/>
	<path fill="#95190C" d="M39.643,11.203c11.381,3.657,30.222,7.702,38.567,8.099c8.346,0.398,33.29,5.015,56.415,1.035
		c19.853-3.416,37.197-11.029,49.442-11.281c15.373-0.318,31.864,2.553,43.913,6.948C221.528,6.317,210.511-0.068,198-0.068h-23.137
		c-11.132,2.913-24.134,7.238-38.276,9.671c-25.958,4.468-53.959-0.715-63.328-1.162c-8.792-0.418-27.96-4.443-40.845-8.331
		c-8.161,0.808-15.515,4.346-21.151,9.681C19.694,8.706,31.411,8.557,39.643,11.203z"/>
	<path fill="#95190C" d="M17.474,153.706c7.584,11.151,14.38,31.574,17.845,41.485c3.894,11.139,13.228,18.465,21.472,20.74h122.339
		c6.874-1.141,12.286-2.666,15.451-4.68c19.628-12.493,15.776-55.32,29.889-76.729c2.266-3.437,5.688-7.284,9.53-11.34v-14.906
		c-7.417,8.273-16.691,16.676-21.086,23.343c-12.572,19.073-9.141,57.225-26.626,68.354c-17.486,11.128-111.672,5.563-119.621,4.767
		c-7.948-0.795-18.282-7.707-22.255-19.074c-3.086-8.829-9.141-27.023-15.896-36.957C22.248,139.492,9.187,128.54,0,118.138v16.23
		C6.829,141.133,13.42,147.744,17.474,153.706z"/>
	<path fill="#621967" d="M28.515,148.708c6.756,9.934,12.811,28.128,15.896,36.957c3.974,11.367,14.307,18.279,22.255,19.074
		c7.949,0.797,102.135,6.361,119.621-4.767c17.485-11.13,14.054-49.281,26.626-68.354c4.395-6.667,13.669-15.069,21.086-23.343
		V82.034c-0.712,5.735-1.636,10.509-2.637,13.239c-3.935,10.729-21.556,24.359-27.894,33.974
		c-11.313,17.163-8.226,51.493-23.96,61.508c-15.734,10.014-100.487,5.007-107.64,4.29c-7.152-0.716-16.451-6.936-20.026-17.164
		c-2.777-7.945-8.225-24.317-14.304-33.256c-6.08-8.942-19.274-19.701-27.536-29.695c-13.588-16.439-6.08-74.015-6.438-78.53
		c0,0,1.829-12.649,11.802-15.509c6.421-1.842,22.172-3.218,32.185,0c10.241,3.291,27.195,6.931,34.705,7.288
		c7.51,0.358,29.956,4.513,50.765,0.931c17.864-3.073,33.472-9.924,44.49-10.151c22.383-0.462,47.414,6.581,53.852,14.806
		c1.143,1.46,2.004,3.919,2.637,7.019v-4.852c0-7.371-2.219-14.221-6.02-19.928c-12.049-4.396-28.54-7.266-43.913-6.948
		c-12.245,0.252-29.59,7.866-49.442,11.281c-23.125,3.98-48.069-0.637-56.415-1.035c-8.345-0.397-27.186-4.442-38.567-8.099
		c-8.232-2.646-19.949-2.497-28.38-1.411C4.331,16.353,0,25.634,0,35.932v82.207C9.187,128.54,22.248,139.492,28.515,148.708z"/>
	<path fill="#FFCF00" d="M177.511,18.958c-11.019,0.227-26.626,7.078-44.49,10.151c-20.809,3.582-43.255-0.573-50.765-0.931
		c-7.51-0.357-24.463-3.997-34.705-7.288c-10.013-3.218-25.764-1.842-32.185,0C5.394,23.75,3.565,36.399,3.565,36.399
		c0.358,4.516-7.15,62.091,6.438,78.53c8.261,9.994,21.456,20.752,27.536,29.695c6.079,8.938,11.527,25.311,14.304,33.256
		c3.576,10.229,12.875,16.448,20.026,17.164c7.153,0.717,91.906,5.724,107.64-4.29c15.734-10.015,12.646-44.345,23.96-61.508
		c6.338-9.615,23.959-23.245,27.894-33.974c1.001-2.73,1.925-7.504,2.637-13.239v-41.25c-0.633-3.1-1.494-5.559-2.637-7.019
		C224.925,25.54,199.894,18.496,177.511,18.958z M227.323,95.726c-3.794,10.344-20.784,23.485-26.895,32.757
		c-10.907,16.549-7.931,49.647-23.101,59.304c-15.171,9.655-96.887,4.827-103.783,4.137c-6.896-0.691-15.861-6.688-19.309-16.549
		c-2.677-7.662-7.93-23.447-13.792-32.064c-5.862-8.623-18.583-18.995-26.549-28.631C0.793,98.829,8.033,43.317,7.688,38.963
		c0,0,1.763-12.196,11.379-14.953c6.191-1.776,21.377-3.103,31.031,0c9.874,3.173,26.22,6.683,33.461,7.027
		c7.241,0.346,28.882,4.351,48.945,0.897c17.225-2.962,32.272-9.568,42.896-9.788c21.582-0.445,45.716,6.345,51.923,14.275
		C233.775,44.667,231.116,85.382,227.323,95.726z"/>
	<path fill="#95190C" d="M175.4,22.146c-10.623,0.219-25.671,6.825-42.896,9.788c-20.063,3.454-41.705-0.552-48.945-0.897
		c-7.241-0.344-23.587-3.854-33.461-7.027c-9.654-3.103-24.84-1.776-31.031,0C9.451,26.767,7.688,38.963,7.688,38.963
		c0.345,4.354-6.895,59.866,6.207,75.716c7.966,9.636,20.688,20.008,26.549,28.631c5.861,8.617,11.114,24.402,13.792,32.064
		c3.448,9.861,12.413,15.857,19.309,16.549c6.896,0.69,88.612,5.519,103.783-4.137c15.17-9.656,12.193-42.755,23.101-59.304
		c6.11-9.271,23.101-22.413,26.895-32.757c3.793-10.344,6.452-51.059,0-59.304C221.116,28.492,196.982,21.701,175.4,22.146z
		 M214.312,97.188c-3.34,9.105-18.296,20.674-23.676,28.834c-9.603,14.57-6.98,43.709-20.336,52.208
		c-13.354,8.5-85.292,4.249-91.362,3.642s-13.962-5.888-16.998-14.569c-2.357-6.744-6.981-20.641-12.141-28.228
		c-5.16-7.589-16.36-16.72-23.372-25.203c-11.533-13.953-5.16-62.821-5.463-66.655c0,0,1.552-10.735,10.017-13.164
		c5.45-1.563,18.819-2.731,27.318,0c8.692,2.794,23.083,5.883,29.457,6.187c6.374,0.304,25.426,3.83,43.087,0.79
		c15.163-2.608,28.409-8.423,37.762-8.617c18.998-0.393,40.245,5.585,45.708,12.567C219.992,52.238,217.651,88.081,214.312,97.188z"
		/>
	<path fill="#621967" d="M168.604,32.413c-9.354,0.193-22.6,6.008-37.762,8.617c-17.662,3.04-36.713-0.486-43.087-0.79
		c-6.374-0.304-20.764-3.393-29.457-6.187c-8.499-2.731-21.868-1.563-27.318,0c-8.465,2.428-10.017,13.164-10.017,13.164
		c0.304,3.834-6.07,52.702,5.463,66.655c7.012,8.483,18.212,17.614,23.372,25.203c5.16,7.587,9.784,21.483,12.141,28.228
		c3.036,8.682,10.927,13.962,16.998,14.569s78.008,4.858,91.362-3.642c13.355-8.499,10.733-37.638,20.336-52.208
		c5.38-8.16,20.336-19.729,23.676-28.834c3.339-9.106,5.68-44.95,0-52.208C208.849,37.999,187.602,32.021,168.604,32.413z
		 M202.12,98.556c-2.913,7.946-15.965,18.04-20.659,25.161c-8.38,12.714-6.092,38.14-17.745,45.556
		c-11.654,7.416-74.425,3.708-79.723,3.179c-5.297-0.53-12.183-5.138-14.832-12.714c-2.057-5.885-6.091-18.01-10.594-24.632
		c-4.502-6.621-14.275-14.59-20.394-21.991c-10.064-12.175-4.502-54.817-4.768-58.163c0,0,1.354-9.368,8.741-11.487
		c4.756-1.364,16.421-2.383,23.837,0c7.585,2.438,20.142,5.134,25.704,5.399c5.562,0.265,22.186,3.342,37.598,0.69
		c13.231-2.277,24.789-7.351,32.951-7.52c16.577-0.342,35.117,4.874,39.885,10.966C207.077,59.333,205.033,90.61,202.12,98.556z"/>
	<rect x="91.309" y="124.772" fill="#FFCF00" width="0.934" height="14.94"/>
	<path fill="#FFCF00" d="M162.235,42.035c-8.162,0.168-19.72,5.243-32.951,7.52c-15.412,2.652-32.036-0.425-37.598-0.69
		c-5.562-0.265-18.118-2.96-25.704-5.399c-7.416-2.383-19.081-1.364-23.837,0c-7.387,2.119-8.741,11.487-8.741,11.487
		c0.265,3.345-5.297,45.988,4.768,58.163c6.119,7.401,15.892,15.37,20.394,21.991c4.503,6.622,8.537,18.747,10.594,24.632
		c2.649,7.576,9.535,12.184,14.832,12.714c5.297,0.529,68.068,4.237,79.723-3.179c11.653-7.416,9.365-32.842,17.745-45.556
		c4.694-7.121,17.746-17.215,20.659-25.161s4.957-39.223,0-45.556C197.352,46.909,178.812,41.692,162.235,42.035z M93.087,61.184
		h10.271v28.814h0.934V61.184h10.338v34.417h0.934V61.184h10.271v36.752c0,2.09-0.667,3.892-2.001,5.403
		c-1.512,1.69-3.491,2.534-5.936,2.534h-5.603c-1.734,0-3.291-0.467-4.669-1.4c-1.512-1.022-2.513-2.423-3.001-4.202h-3.602
		c-2.09,0-3.892-0.689-5.403-2.068c-1.69-1.467-2.534-3.423-2.534-5.87V61.184z M69.275,105.939H58.937V86.263h-0.934v19.677H47.731
		V56.314h10.271v19.677h0.934V56.314h10.338V105.939z M72.943,103.872c-1.69-1.467-2.534-3.423-2.534-5.87V69.188
		c0-2.089,0.688-3.891,2.067-5.403c1.468-1.689,3.424-2.535,5.87-2.535h5.669c2.09,0,3.891,0.69,5.403,2.068
		c1.689,1.467,2.535,3.425,2.535,5.87v28.814c0,2.091-0.69,3.892-2.067,5.403c-1.513,1.69-3.469,2.535-5.87,2.535h-5.669
		C76.255,105.939,74.454,105.25,72.943,103.872z M102.581,142.047c0,2.09-0.69,3.913-2.067,5.469
		c-1.513,1.646-3.469,2.468-5.87,2.468h-3.335v14.074H81.037v-49.625h13.606c2.09,0,3.891,0.69,5.403,2.067
		c1.689,1.513,2.535,3.469,2.535,5.87V142.047z M113.987,164.058h-10.271v-49.625h10.271V164.058z M136.732,156.121
		c0,2.446-0.846,4.402-2.535,5.87c-1.512,1.379-3.313,2.067-5.403,2.067h-5.669c-2.446,0-4.402-0.844-5.87-2.534
		c-1.379-1.512-2.067-3.312-2.067-5.403v-16.875c0-2.09,0.688-3.891,2.067-5.402c1.468-1.689,3.424-2.535,5.87-2.535h3.269v-0.934
		h-11.206v-10.339h13.606c2.09,0,3.891,0.69,5.403,2.068c1.689,1.512,2.535,3.491,2.535,5.936V156.121z M159.41,156.054
		c0,2.091-0.69,3.892-2.068,5.402c-1.512,1.69-3.468,2.535-5.869,2.535h-13.607v-10.272h11.206v-0.934h-3.269
		c-2.446,0-4.402-0.844-5.869-2.534c-1.379-1.512-2.068-3.312-2.068-5.403v-25.546h10.272v23.212h0.934v-23.212h10.339V156.054z
		 M168.191,72.256h-11.272v23.412h0.934V73.189h10.339v24.812c0,2.446-0.846,4.402-2.535,5.87c-1.512,1.379-3.313,2.068-5.402,2.068
		h-5.67c-2.446,0-4.402-0.844-5.869-2.535c-1.379-1.511-2.068-3.312-2.068-5.403V56.314h10.272v5.603h11.272V72.256z
		 M190.869,98.002c0,2.091-0.69,3.892-2.068,5.403c-1.512,1.69-3.468,2.535-5.869,2.535h-5.67c-2.091,0-3.892-0.689-5.402-2.068
		c-1.69-1.467-2.535-3.423-2.535-5.87V69.188c0-2.089,0.689-3.891,2.068-5.403c1.467-1.689,3.423-2.535,5.869-2.535h5.67
		c2.089,0,3.891,0.69,5.402,2.068c1.689,1.467,2.535,3.425,2.535,5.87V98.002z"/>
	<rect x="80.68" y="71.522" fill="#FFCF00" width="0.934" height="24.146"/>
	<rect x="125.459" y="141.58" fill="#FFCF00" width="0.934" height="12.207"/>
	<rect x="179.596" y="71.522" fill="#FFCF00" width="0.934" height="24.146"/>
	<polygon fill="#621967" points="58.937,75.991 58.002,75.991 58.002,56.314 47.731,56.314 47.731,105.939 58.002,105.939 
		58.002,86.263 58.937,86.263 58.937,105.939 69.275,105.939 69.275,56.314 58.937,56.314 	"/>
	<path fill="#621967" d="M89.885,103.405c1.377-1.511,2.067-3.312,2.067-5.403V69.188c0-2.445-0.845-4.402-2.535-5.87
		c-1.512-1.378-3.313-2.068-5.403-2.068h-5.669c-2.446,0-4.402,0.845-5.87,2.535c-1.379,1.512-2.067,3.313-2.067,5.403v28.814
		c0,2.446,0.844,4.402,2.534,5.87c1.511,1.379,3.312,2.068,5.403,2.068h5.669C86.417,105.939,88.373,105.095,89.885,103.405z
		 M81.614,95.667H80.68V71.522h0.934V95.667z"/>
	<path fill="#621967" d="M95.621,98.202c1.511,1.379,3.312,2.068,5.403,2.068h3.602c0.489,1.779,1.489,3.18,3.001,4.202
		c1.378,0.934,2.935,1.4,4.669,1.4h5.603c2.445,0,4.424-0.844,5.936-2.534c1.334-1.511,2.001-3.312,2.001-5.403V61.184h-10.271
		v34.417h-0.934V61.184h-10.338v28.814h-0.934V61.184H93.087v31.149C93.087,94.779,93.931,96.735,95.621,98.202z"/>
	<path fill="#621967" d="M156.918,56.314h-10.272v41.688c0,2.091,0.689,3.892,2.068,5.403c1.467,1.69,3.423,2.535,5.869,2.535h5.67
		c2.089,0,3.891-0.689,5.402-2.068c1.689-1.467,2.535-3.423,2.535-5.87V73.189h-10.339v22.478h-0.934V72.256h11.272V61.917h-11.272
		V56.314z"/>
	<path fill="#621967" d="M188.333,63.318c-1.512-1.378-3.313-2.068-5.402-2.068h-5.67c-2.446,0-4.402,0.845-5.869,2.535
		c-1.379,1.512-2.068,3.313-2.068,5.403v28.814c0,2.446,0.845,4.402,2.535,5.87c1.511,1.379,3.312,2.068,5.402,2.068h5.67
		c2.401,0,4.357-0.844,5.869-2.535c1.378-1.511,2.068-3.312,2.068-5.403V69.188C190.869,66.743,190.023,64.785,188.333,63.318z
		 M180.53,95.667h-0.934V71.522h0.934V95.667z"/>
	<path fill="#621967" d="M100.046,116.5c-1.512-1.377-3.313-2.067-5.403-2.067H81.037v49.625h10.271v-14.074h3.335
		c2.401,0,4.357-0.822,5.87-2.468c1.377-1.556,2.067-3.379,2.067-5.469v-19.677C102.581,119.969,101.736,118.013,100.046,116.5z
		 M92.243,139.712h-0.934v-14.94h0.934V139.712z"/>
	<rect x="103.715" y="114.433" fill="#621967" width="10.271" height="49.625"/>
	<path fill="#621967" d="M134.197,122.104c-1.512-1.378-3.313-2.068-5.403-2.068h-13.606v10.339h11.206v0.934h-3.269
		c-2.446,0-4.402,0.846-5.87,2.535c-1.379,1.512-2.067,3.312-2.067,5.402v16.875c0,2.091,0.688,3.892,2.067,5.403
		c1.468,1.69,3.424,2.534,5.87,2.534h5.669c2.09,0,3.891-0.688,5.403-2.067c1.689-1.468,2.535-3.424,2.535-5.87V128.04
		C136.732,125.595,135.886,123.616,134.197,122.104z M126.393,153.787h-0.934V141.58h0.934V153.787z"/>
	<path fill="#621967" d="M149.071,142.514h-0.934v-23.212h-10.272v25.546c0,2.091,0.689,3.892,2.068,5.403
		c1.467,1.69,3.423,2.534,5.869,2.534h3.269v0.934h-11.206v10.272h13.607c2.401,0,4.357-0.845,5.869-2.535
		c1.378-1.511,2.068-3.312,2.068-5.402v-36.752h-10.339V142.514z"/>
</g>
</svg>
