<?xml version="1.0" encoding="utf-8"?>
<!-- Generator: Adobe Illustrator 16.0.0, SVG Export Plug-In . SVG Version: 6.00 Build 0)  -->
<!DOCTYPE svg PUBLIC "-//W3C//DTD SVG 1.1//EN" "http://www.w3.org/Graphics/SVG/1.1/DTD/svg11.dtd">
<svg version="1.1" id="Layer_1" xmlns="http://www.w3.org/2000/svg" xmlns:xlink="http://www.w3.org/1999/xlink" x="0px" y="0px"
	 width="241.333px" height="489.333px" viewBox="0 0 241.333 489.333" style="enable-background:new 0 0 241.333 489.333;"
	 xml:space="preserve">
<style type="text/css">
<![CDATA[
	.st0{fill:none;stroke:#000000;stroke-width:4;stroke-miterlimit:10;}
]]>
</style>
<g class="cardShape">
	<path d="M120.666,25.92c52.002,0,94.309,42.307,94.309,94.309v246.1c0,52.002-42.307,94.309-94.309,94.309
		c-52.001,0-94.308-42.307-94.308-94.309v-246.1C26.358,68.227,68.665,25.92,120.666,25.92 M120.666,16.92
		c-57.055,0-103.308,46.252-103.308,103.309v246.1c0,57.057,46.253,103.309,103.308,103.309
		c57.056,0,103.309-46.252,103.309-103.309v-246.1C223.975,63.173,177.722,16.92,120.666,16.92L120.666,16.92z"/>
	<rect x="57.076" y="42.359" width="126.5" height="4"/>
	<rect x="45.576" y="52.359" width="149" height="4"/>
	<rect x="37.576" y="62.359" width="164.5" height="4"/>
	<rect x="33.076" y="72.359" width="175" height="4"/>
	<rect x="28.076" y="82.359" width="183.5" height="4"/>
	<rect x="24.076" y="92.359" width="191.5" height="4"/>
	<rect x="22.076" y="102.359" width="195.5" height="4"/>
	<rect x="21.576" y="112.359" width="196" height="4"/>
	<rect x="20.576" y="122.359" width="197.5" height="4"/>
	<rect x="21.076" y="132.359" width="196.5" height="4"/>
	<rect x="21.576" y="142.359" width="197.5" height="4"/>
	<rect x="22.076" y="152.359" width="197" height="4"/>
	<rect x="22.076" y="162.359" width="197" height="4"/>
	<rect x="22.576" y="172.359" width="196.5" height="4"/>
	<rect x="23.076" y="182.359" width="196.5" height="4"/>
	<rect x="22.076" y="192.359" width="197.5" height="4"/>
	<rect x="21.576" y="202.359" width="198" height="4"/>
	<rect x="22.576" y="212.359" width="197" height="4"/>
	<rect x="22.576" y="222.359" width="197" height="4"/>
	<rect x="22.076" y="232.359" width="197.5" height="4"/>
	<rect x="21.576" y="242.359" width="197" height="4"/>
	<rect x="22.076" y="252.359" width="199" height="4"/>
	<rect x="22.576" y="262.359" width="197.5" height="4"/>
	<rect x="22.076" y="272.359" width="197.5" height="4"/>
	<rect x="22.576" y="282.359" width="197" height="4"/>
	<rect x="22.576" y="292.359" width="196.5" height="4"/>
	<rect x="23.076" y="302.359" width="195.5" height="4"/>
	<rect x="22.576" y="312.359" width="195.5" height="4"/>
	<rect x="22.076" y="322.359" width="198" height="4"/>
	<rect x="22.076" y="332.359" width="197.5" height="4"/>
	<rect x="22.076" y="342.359" width="197.5" height="4"/>
	<rect x="22.076" y="352.359" width="197.5" height="4"/>
	<rect x="22.076" y="362.359" width="198" height="4"/>
	<rect x="22.076" y="372.36" width="198" height="4"/>
	<rect x="23.576" y="382.36" width="193.5" height="4"/>
	<rect x="26.076" y="392.36" width="189.5" height="4"/>
	<rect x="29.076" y="402.36" width="182" height="4"/>
	<rect x="33.076" y="412.36" width="174.5" height="4"/>
	<rect x="41.076" y="422.36" width="159.5" height="4"/>
	<rect x="49.576" y="432.36" width="142" height="4"/>
	<rect x="64.076" y="442.36" width="116" height="4"/>
	<rect x="77.076" y="452.36" width="89.5" height="4"/>
	<path class="st0" d="M124.076,464.36"/>
	<rect x="71.076" y="32.359" width="98.5" height="4"/>
	<rect x="90.576" y="22.359" width="58.5" height="4"/>
</g>
</svg>
