<?xml version="1.0" encoding="utf-8"?>
<!-- Generator: Adobe Illustrator 16.0.0, SVG Export Plug-In . SVG Version: 6.00 Build 0)  -->
<!DOCTYPE svg PUBLIC "-//W3C//DTD SVG 1.1//EN" "http://www.w3.org/Graphics/SVG/1.1/DTD/svg11.dtd">
<svg version="1.1" id="Layer_1" xmlns="http://www.w3.org/2000/svg" xmlns:xlink="http://www.w3.org/1999/xlink" x="0px" y="0px"
	 width="241.333px" height="489.333px" viewBox="0 0 241.333 489.333" style="enable-background:new 0 0 241.333 489.333;"
	 xml:space="preserve">
<path class="cardShape" d="M120.667,31.958c52.001,0,94.308,42.307,94.308,94.309v246.1c0,52.002-42.307,94.309-94.308,94.309
	c-52.002,0-94.309-42.307-94.309-94.309v-246.1C26.358,74.265,68.665,31.958,120.667,31.958 M120.667,22.958
	c-57.055,0-103.309,46.252-103.309,103.309v246.1c0,57.056,46.254,103.309,103.309,103.309c57.056,0,103.308-46.253,103.308-103.309
	v-246.1C223.975,69.21,177.723,22.958,120.667,22.958L120.667,22.958z"/>
</svg>
