<?xml version="1.0" encoding="utf-8"?>
<!-- Generator: Adobe Illustrator 16.0.0, SVG Export Plug-In . SVG Version: 6.00 Build 0)  -->
<!DOCTYPE svg PUBLIC "-//W3C//DTD SVG 1.1//EN" "http://www.w3.org/Graphics/SVG/1.1/DTD/svg11.dtd">
<svg version="1.1" id="Layer_1" xmlns="http://www.w3.org/2000/svg" xmlns:xlink="http://www.w3.org/1999/xlink" x="0px" y="0px"
	 width="234px" height="216px" viewBox="0 0 234 216" enable-background="new 0 0 234 216" xml:space="preserve">
<g>
	<path fill="none" d="M0,54.935c-0.271-0.17-0.534-0.352-0.784-0.551V162.36c0.269,0.11,0.53,0.231,0.784,0.367V54.935z"/>
	<path fill="none" d="M-0.784,178.093V180c0,2.567,0.273,5.069,0.784,7.484v-9.759C-0.254,177.861-0.516,177.982-0.784,178.093z"/>
	<path fill="none" d="M0,28.516C-0.511,30.931-0.784,33.433-0.784,36v5.082c0.25-0.199,0.513-0.381,0.784-0.551V28.516z"/>
	<path fill="#95190C" d="M192.137,215.5c0-4.693,3.806-8.5,8.5-8.5c4.188,0,7.659,3.031,8.362,7.017
		c14.093-4.882,24.215-18.263,24.215-34.017v-1.426c-0.512,0.097-1.038,0.152-1.577,0.152c-4.694,0-8.5-3.805-8.5-8.5
		c0-4.693,3.806-8.5,8.5-8.5c0.539,0,1.065,0.056,1.577,0.152V97.382c-1.523,2.287-4.123,3.795-7.077,3.795
		c-4.694,0-8.5-3.806-8.5-8.5s3.806-8.5,8.5-8.5c2.954,0,5.554,1.508,7.077,3.795V47.581c-0.512,0.096-1.038,0.152-1.577,0.152
		c-4.694,0-8.5-3.806-8.5-8.5s3.806-8.5,8.5-8.5c0.409,0,0.809,0.039,1.202,0.095c-2.463-17.107-16.95-30.318-34.623-30.802
		c0.896,1.347,1.421,2.962,1.421,4.702c0,4.694-3.806,8.5-8.5,8.5s-8.5-3.806-8.5-8.5c0-1.75,0.53-3.375,1.437-4.727H49.582
		c0.906,1.352,1.436,2.978,1.436,4.727c0,4.694-3.806,8.5-8.5,8.5s-8.5-3.806-8.5-8.5c0-1.75,0.53-3.375,1.436-4.727h-0.238
		C17.9,0,3.445,12.227,0,28.516v12.015c1.306-0.818,2.845-1.298,4.5-1.298c4.694,0,8.5,3.806,8.5,8.5s-3.806,8.5-8.5,8.5
		c-1.655,0-3.194-0.48-4.5-1.298v107.793c2.677,1.432,4.5,4.252,4.5,7.499c0,3.248-1.823,6.068-4.5,7.499v9.759
		C3.445,203.773,17.9,216,35.216,216h156.946C192.152,215.834,192.137,215.669,192.137,215.5z M148.637,37.733
		c4.694,0,8.5,3.806,8.5,8.5s-3.806,8.5-8.5,8.5s-8.5-3.806-8.5-8.5S143.942,37.733,148.637,37.733z M108.5,4.727
		c4.694,0,8.5,3.806,8.5,8.5s-3.806,8.5-8.5,8.5s-8.5-3.806-8.5-8.5S103.806,4.727,108.5,4.727z M63.018,39.44
		c4.694,0,8.5,3.806,8.5,8.5s-3.806,8.5-8.5,8.5s-8.5-3.806-8.5-8.5S58.324,39.44,63.018,39.44z M9.5,123.5
		c-4.694,0-8.5-3.805-8.5-8.5c0-4.693,3.806-8.5,8.5-8.5s8.5,3.807,8.5,8.5C18,119.695,14.194,123.5,9.5,123.5z M23.285,156.5
		l-2.377-88.205l51.493-4.479l0.587-13.875l43.043,9.292l1.05,10.56l50.085-4.355l0.891-15.496l44.692,5.163l0.343,94.311
		l-48.672-4.981l-0.441,9.59l-41.765,2.478l-0.512-7.39l-46.77-4.313l0.194,7.194L23.285,156.5z M51.018,215.5
		c-4.694,0-8.5-3.805-8.5-8.5c0-4.693,3.806-8.5,8.5-8.5s8.5,3.807,8.5,8.5C59.518,211.695,55.712,215.5,51.018,215.5z
		 M76.071,173.227c-4.694,0-8.5-3.805-8.5-8.5c0-4.693,3.806-8.5,8.5-8.5s8.5,3.807,8.5,8.5
		C84.571,169.422,80.766,173.227,76.071,173.227z M123.636,201.5c-4.694,0-8.5-3.805-8.5-8.5c0-4.693,3.806-8.5,8.5-8.5
		s8.5,3.807,8.5,8.5C132.136,197.695,128.33,201.5,123.636,201.5z M170.637,176.227c-4.694,0-8.5-3.805-8.5-8.5
		c0-4.693,3.806-8.5,8.5-8.5s8.5,3.807,8.5,8.5C179.137,172.422,175.331,176.227,170.637,176.227z"/>
	<rect x="44.936" y="96.591" fill="#FFCF00" width="0.964" height="15.423"/>
	<path fill="#FFCF00" d="M74.934,144.797L69,144.25l3.401-80.435l-51.493,4.479l2.377,88.205l51.843-4.509L74.934,144.797z
		 M56.571,114.424c0,2.158-0.712,4.04-2.135,5.646c-1.561,1.699-3.58,2.547-6.059,2.547h-3.442v14.529H34.332V85.918h14.046
		c2.157,0,4.016,0.712,5.577,2.134c1.744,1.561,2.616,3.581,2.616,6.06V114.424z"/>
	<path fill="#FFCF00" d="M121.703,149.11l0.512,7.39l41.765-2.478l0.441-9.59l-1.784-0.183l4.53-78.814l-50.085,4.355L125,149.414
		L121.703,149.11z M134.205,94.112c0-2.157,0.711-4.017,2.134-5.578c1.515-1.744,3.534-2.616,6.06-2.616h5.853
		c2.157,0,4.016,0.712,5.577,2.134c1.744,1.561,2.616,3.581,2.616,6.06v43.034h-10.672v-17.42h-0.964v17.42h-10.604V94.112z"/>
	<rect x="144.809" y="96.591" fill="#FFCF00" width="0.964" height="12.531"/>
	<path fill="#621967" d="M74.934,144.797l46.77,4.313l3.297,0.304l-7.918-79.623l-1.05-10.56L72.988,49.94l-0.587,13.875L69,144.25
		L74.934,144.797z M87.771,78.497h10.604v40.624h8.744v10.604H87.771V78.497z"/>
	<path fill="#621967" d="M164.421,144.433l48.672,4.981l-0.343-94.311l-44.692-5.163l-0.891,15.496l-4.53,78.814L164.421,144.433z
		 M180.521,78.497h10.604v28.988h0.964V78.497h10.672v31.397c0,2.021-0.574,3.765-1.721,5.232c-1.057,1.286-2.41,2.158-4.062,2.617
		v11.98h-10.673v-11.912c-1.79-0.504-3.214-1.537-4.269-3.098c-1.011-1.423-1.515-3.03-1.515-4.82V78.497z"/>
	<path fill="#FFFFFF" d="M53.955,88.053c-1.562-1.422-3.42-2.134-5.577-2.134H34.332v51.228h10.604v-14.529h3.442
		c2.479,0,4.498-0.848,6.059-2.547c1.423-1.606,2.135-3.488,2.135-5.646V94.112C56.571,91.633,55.699,89.614,53.955,88.053z
		 M45.899,112.014h-0.964V96.591h0.964V112.014z"/>
	<polygon fill="#FFFFFF" points="107.119,119.121 98.375,119.121 98.375,78.497 87.771,78.497 87.771,129.725 107.119,129.725 	"/>
	<path fill="#FFFFFF" d="M144.809,119.727h0.964v17.42h10.672V94.112c0-2.479-0.872-4.499-2.616-6.06
		c-1.562-1.422-3.42-2.134-5.577-2.134h-5.853c-2.525,0-4.545,0.873-6.06,2.616c-1.423,1.561-2.134,3.42-2.134,5.578v43.034h10.604
		V119.727z M144.809,96.591h0.964v12.531h-0.964V96.591z"/>
	<path fill="#FFFFFF" d="M186.304,117.812v11.912h10.673v-11.98c1.652-0.459,3.006-1.331,4.062-2.617
		c1.146-1.468,1.721-3.212,1.721-5.232V78.497h-10.672v28.988h-0.964V78.497h-10.604v31.397c0,1.79,0.504,3.397,1.515,4.82
		C183.09,116.275,184.514,117.309,186.304,117.812z"/>
	<path fill="#621967" d="M4.5,56.233c4.694,0,8.5-3.806,8.5-8.5s-3.806-8.5-8.5-8.5c-1.655,0-3.194,0.48-4.5,1.298
		c-0.271,0.17-0.534,0.352-0.784,0.551v13.302c0.25,0.199,0.513,0.381,0.784,0.551C1.306,55.752,2.845,56.233,4.5,56.233z"/>
	<path fill="#621967" d="M42.518,13.227c4.694,0,8.5-3.806,8.5-8.5c0-1.75-0.53-3.375-1.436-4.727H35.454
		c-0.906,1.352-1.436,2.978-1.436,4.727C34.018,9.421,37.824,13.227,42.518,13.227z"/>
	<path fill="#621967" d="M226.137,84.177c-4.694,0-8.5,3.806-8.5,8.5s3.806,8.5,8.5,8.5c2.954,0,5.554-1.508,7.077-3.795v-9.41
		C231.69,85.686,229.091,84.177,226.137,84.177z"/>
	<circle fill="#621967" cx="108.5" cy="13.227" r="8.5"/>
	<circle fill="#621967" cx="63.018" cy="47.94" r="8.5"/>
	<circle fill="#621967" cx="148.637" cy="46.233" r="8.5"/>
	<path fill="#621967" d="M191.137,13.227c4.694,0,8.5-3.806,8.5-8.5c0-1.739-0.524-3.355-1.421-4.702
		C197.882,0.016,197.55,0,197.214,0h-13.141c-0.906,1.352-1.437,2.978-1.437,4.727C182.637,9.421,186.442,13.227,191.137,13.227z"/>
	<path fill="#621967" d="M223.137,39.233c0,4.694,3.806,8.5,8.5,8.5c0.539,0,1.065-0.056,1.577-0.152V36
		c0-1.757-0.132-3.482-0.375-5.172c-0.394-0.056-0.793-0.095-1.202-0.095C226.942,30.733,223.137,34.539,223.137,39.233z"/>
	<circle fill="#621967" cx="170.637" cy="167.727" r="8.5"/>
	<path fill="#621967" d="M200.637,207c-4.694,0-8.5,3.807-8.5,8.5c0,0.169,0.016,0.334,0.025,0.5h5.052
		c4.129,0,8.092-0.704,11.785-1.983C208.296,210.031,204.824,207,200.637,207z"/>
	<path fill="#621967" d="M223.137,170.227c0,4.695,3.806,8.5,8.5,8.5c0.539,0,1.065-0.056,1.577-0.152v-16.695
		c-0.512-0.097-1.038-0.152-1.577-0.152C226.942,161.727,223.137,165.533,223.137,170.227z"/>
	<circle fill="#621967" cx="123.636" cy="193" r="8.5"/>
	<circle fill="#621967" cx="76.071" cy="164.727" r="8.5"/>
	<circle fill="#621967" cx="51.018" cy="207" r="8.5"/>
	<path fill="#621967" d="M4.5,170.227c0-3.247-1.823-6.067-4.5-7.499c-0.254-0.136-0.516-0.257-0.784-0.367v15.732
		c0.269-0.11,0.53-0.231,0.784-0.367C2.677,176.295,4.5,173.475,4.5,170.227z"/>
	<circle fill="#621967" cx="9.5" cy="115" r="8.5"/>
</g>
</svg>
