<?xml version="1.0" encoding="utf-8"?>
<!-- Generator: Adobe Illustrator 16.0.0, SVG Export Plug-In . SVG Version: 6.00 Build 0)  -->
<!DOCTYPE svg PUBLIC "-//W3C//DTD SVG 1.1//EN" "http://www.w3.org/Graphics/SVG/1.1/DTD/svg11.dtd">
<svg version="1.1" xmlns="http://www.w3.org/2000/svg" xmlns:xlink="http://www.w3.org/1999/xlink" x="0px" y="0px"
	 width="829.458px" height="469.477px" viewBox="0 0 829.458 469.477" style="enable-background:new 0 0 829.458 469.477;"
	 xml:space="preserve">
<style type="text/css">
<![CDATA[
	.st0{fill:none;stroke:#621967;stroke-miterlimit:10;}
	.st1{opacity:0.5;fill:#651A65;}
	.st2{fill:url(#SVGID_1_);}
	.st3{fill:url(#SVGID_2_);}
	.st4{fill:url(#SVGID_3_);}
	.st5{fill:url(#SVGID_4_);}
	.st6{fill:#C9C6CF;}
	.st7{fill:#FFFFFF;}
	.st8{fill:#621967;}
	.st9{fill:#651A65;}
	.st10{fill:none;stroke:#621967;stroke-width:9;stroke-miterlimit:10;}
	.st11{fill:#A8A9AD;}
]]>
</style>
<g id="background-box">
	<g>
		<g>
			<g>
				<path class="st6" d="M378.356,397.705H126.299c0,0-48.266-1.342-58.992-52.289C56.582,294.467,33.789,168.44,33.789,168.44
					s-10.726-67.037,72.4-79.104c83.125-12.066,595.284-79.103,595.284-79.103s76.422-9.384,68.379,68.377
					c-8.045,77.763-29.498,241.331-29.498,241.331s-4.021,76.421-89.828,77.763C564.718,399.045,378.356,397.705,378.356,397.705z"
					/>
			</g>
			<g>
				<path class="st11" d="M712.126,176.373c-105.154,80.491-227.191,46.733-318.07,14.28
					c-90.876-32.456-183.047-64.904-306.381,19.478c0,0-17.83,17.181-41.502,25.787c7.11,38.288,15.682,83.595,21.135,109.499
					c10.726,50.947,58.992,52.289,58.992,52.289h252.057c0,0,186.362,1.34,272.168,0c85.807-1.342,89.828-77.763,89.828-77.763
					s16.939-129.16,26.357-212.498C754.798,133.373,737.142,157.226,712.126,176.373z"/>
			</g>
			<g>
				<g>
					<path class="st8" d="M708.959,18.879c10.452,0,29.765,1.971,41.669,15.169c8.801,9.758,12.256,24.439,10.271,43.636
						c-7.94,76.75-29.255,239.453-29.47,241.087l-0.044,0.319l-0.019,0.35c-0.01,0.175-1.153,17.653-11.798,34.785
						c-13.904,22.379-37.182,33.98-69.185,34.48c-25.261,0.395-61.785,0.595-108.558,0.595c-79.688,0-162.578-0.59-163.406-0.596
						h-0.032h-0.032H126.494c-1.093-0.06-11.292-0.757-22.235-6.39c-14.873-7.655-24.342-20.693-28.144-38.754
						c-10.433-49.556-32.627-172.069-33.448-176.604c-0.186-1.291-2.962-22.525,10.751-41.177
						c10.754-14.626,28.943-23.891,54.063-27.538c81.847-11.881,586.756-77.986,595.094-79.078
						C702.865,19.134,705.286,18.879,708.959,18.879L708.959,18.879 M708.957,9.878c-4.594,0-7.484,0.355-7.484,0.355
						S189.313,77.27,106.188,89.336c-83.125,12.067-72.4,79.104-72.4,79.104s22.793,126.027,33.519,176.976
						c10.726,50.947,58.992,52.289,58.992,52.289h252.057c0,0,82.825,0.596,163.47,0.596c40.318,0,80.098-0.149,108.698-0.596
						c85.807-1.342,89.828-77.763,89.828-77.763s21.453-163.568,29.498-241.331C776.331,15.966,727.995,9.878,708.957,9.878
						L708.957,9.878z"/>
				</g>
			</g>
		</g>
		<path class="st10" d="M255.01,338.713c0,0,186.363-32.177,394.175,0c0,40.223,0,60.777,0,100.998
			c-207.812,32.178-394.175,0-394.175,0V338.713z"/>
		<path class="st1" d="M255.01,338.713c0,0,186.363-32.177,394.175,0c0,40.223,0,60.777,0,100.998
			c-207.812,32.178-394.175,0-394.175,0V338.713z"/>
		<path class="st9" d="M255.01,389.211v50.5c0,0,186.363,32.178,394.175,0c0-20.111,0-35.305,0-50.5H255.01z"/>
	</g>
</g>
<g id="setLogo">
	<g id="setWhite">
		<g>
			<g>
				<path class="st7" d="M76.602,317.529c-4.64,0-9.354-0.488-14.012-1.452c-8.021-1.659-15.615-6.312-22.571-13.827
					c-1.42-1.52-4.227-4.86-11.855-15.917c-4.068-5.701-7.661-9.885-10.68-12.437c-2.425-1.994-3.935-4.758-4.258-7.798
					c-0.288-2.67,0.074-7.841,5.71-12.449c3.016-2.565,6.798-4.556,11.427-5.998c-3.402-2.017-6.32-4.251-8.788-6.721
					c-5.197-5.274-8.208-11.63-8.993-18.935c-0.517-4.817,0.007-10.064,1.556-15.595l0.033-0.113
					c4.807-16.336,18.264-36.639,55.077-40.594c3.665-0.394,7.299-0.594,10.802-0.594c12.264,0,23.653,2.439,33.851,7.25
					c8.792,4.122,15.811,9.589,21.004,16.342c3.006-9.807,7.388-17.913,13.11-24.216c6.159-6.851,14.275-11.587,24.095-14.047
					c11.537-3.069,22.665-4.626,33.076-4.626c2.618,0,5.235,0.099,7.781,0.292c9.275,0.68,17.537,3.091,24.529,7.164l0.098,0.058
					c7.181,4.305,13.569,10.249,19.026,17.696c2.433-1.306,4.965-2.604,7.587-3.886c0.242-9.255,0.057-13.622-0.164-15.679
					c-0.358-3.34-1.074-6.231-2.129-8.597c-1.162-2.392-1.254-5.186-0.216-7.671c2.151-5.15,7.484-6.62,16.012-8.429l0.144-0.029
					c5.221-1.019,9.003-1.647,11.562-1.921c5.132-0.552,9.783-0.832,13.819-0.832c0.748,0,1.476,0.009,2.183,0.028
					c0.08-0.001,0.16-0.001,0.24-0.001c3.097,0,6.358,0.782,9.694,2.324l2.936,1.357l1.401,2.916
					c1.41,2.935,2.456,6.582,3.15,11.011c7.405-3.65,14.434-7.773,20.917-12.268l0.131-0.091l0.135-0.086
					c4.458-2.862,10.453-4.665,18.328-5.51c2.163-0.232,4.276-0.35,6.281-0.35c4.532,0,8.733,0.602,12.487,1.79
					c10.414,3.297,12.618,9.854,13.005,13.469c0.6,5.562-2.405,10.778-8.931,15.497l-0.241,0.168
					c-12.285,8.286-30.49,17.307-55.655,27.579l-6.512,2.729c-0.318,5.481-0.577,10.576-0.775,15.281
					c3.516-2.282,9.817-3.921,23.591-5.401c4.378-0.47,8.416-0.708,12.003-0.708c1.452,0,2.86,0.039,4.193,0.116
					c0.024,0,0.048,0,0.072,0c3.096,0,6.358,0.782,9.694,2.326l3.927,1.816l1.034,4.202c5.244,21.312,8.114,34.652,8.772,40.785
					c2.177,20.265-1.395,35.436-10.617,45.095c-3.828,4.086-8.434,7.045-13.689,8.796c-8.776,3.129-19.404,5.069-31.589,5.764
					c-2.734,0.162-5.402,0.244-7.911,0.244c-12.912,0-22.64-2.121-29.739-6.483c-12.74-7.653-21.568-20.818-26.161-39.083
					c-1.355-5.407-2.379-11.301-3.048-17.526c-0.292-2.723-0.512-5.674-0.659-8.842c-6.903,10.007-19.433,17.542-38.116,22.871
					c4.433-0.824,9.142-1.382,14.047-1.664c2.175-0.11,4.13-0.165,5.871-0.165c4.927,0,18.015,0,19.155,10.612
					c0.194,1.87-0.061,4.654-2.322,7.562c-11.296,15.219-23.882,25.336-37.414,30.074c-5.692,2.082-12.898,3.573-22.022,4.558
					c-5.108,0.644-9.912,0.971-14.276,0.971c-2.575,0-5.062-0.113-7.392-0.337l-0.138-0.015c-7.967-0.889-14.577-3.068-19.647-6.478
					c-7.739-5.155-14.103-13.039-19-23.52c-0.561,0.802-1.135,1.614-1.724,2.435c-10.77,15.273-21.089,25.654-31.505,31.674
					c-6.881,4.135-14.822,6.71-23.603,7.654C81.412,317.4,78.992,317.529,76.602,317.529z M80.625,264.89
					c0.826,1.104,1.647,2.213,2.463,3.325c0.888-1.226,1.815-2.532,2.779-3.917c0.774-1.167,1.508-2.289,2.201-3.363
					c-3.881-0.227-7.566-0.504-11.063-0.833C78.188,261.576,79.393,263.169,80.625,264.89z M196.948,259.247
					c1.194,3.124,2.509,5.916,3.938,8.368c1.631-1.895,3.285-3.941,4.953-6.128c1.655-2.275,4.122-3.873,8.497-5.334
					C209.204,257.268,203.391,258.303,196.948,259.247z M321.708,229.348c0.09,1.832,0.211,3.456,0.364,4.872
					c0.774,7.21,2.12,13.644,4.027,19.275c-0.146-1.851-0.357-3.779-0.635-5.786C325.127,245.178,324.17,240.001,321.708,229.348z
					 M196.821,182.062c-1.811,3.721-3.285,8.122-4.408,13.168c-2.63,11.273-3.261,23.388-1.896,36.097
					c0.068,0.635,0.141,1.272,0.219,1.912c0.761-0.195,1.514-0.412,2.259-0.649l0.471-0.304l1.161-0.365
					c1.312-0.412,2.855-1.184,4.587-2.296l1.791-1.15l0.147-0.016c1.172-0.842,2.187-1.691,3.025-2.531
					c4.342-4.636,5.991-10.277,5.188-17.743c-0.648-6.033-2.79-12.093-6.366-18.014
					C201.163,187.135,199.098,184.426,196.821,182.062z M130.154,227.116c-0.01-0.35-0.018-0.701-0.025-1.05
					c-0.881,0.353-1.784,0.68-2.71,0.983L130.154,227.116z M87.575,224.639c1.023,0.17,2.086,0.33,3.189,0.48
					c-3.814-2.632-5.426-5.903-6.068-8.604c-1.289-5.063-4.226-9.389-8.979-13.223l-0.198-0.16c-1.675,2.727-2.784,5.425-3.31,8.057
					c-0.468,2.265-0.393,4.299,0.225,6.24c0.627,1.019,1.397,1.893,2.342,2.658c2.557,1.72,6.208,3.128,10.859,4.189L87.575,224.639
					z"/>
			</g>
			<g>
				<path class="st7" d="M378.4,133.667c-4.238-1.34-9.27-1.697-15.093-1.072c-6.391,0.686-11.2,2.063-14.426,4.135
					c-7.354,5.1-15.267,9.688-23.736,13.757l-1.446,0.586l-1.637,0.823c-2.197,0.956-4.329,1.831-6.398,2.626l-0.806,0.518
					c-0.155-9.465-1.25-16.316-3.285-20.552c-2.269-1.049-4.335-1.543-6.195-1.489c-4.182-0.123-9.183,0.124-15.005,0.75
					c-2.273,0.244-5.872,0.845-10.797,1.806c-6.884,1.46-10.066,2.591-9.548,3.397c1.501,3.286,2.491,7.134,2.963,11.534
					c0.427,3.979,0.438,11.449,0.037,22.409c-7.196,3.329-13.646,6.707-19.37,10.133c-0.811-1.45-1.672-2.893-2.631-4.321
					c-5.13-7.639-11.15-13.529-18.061-17.672c-5.827-3.394-12.722-5.383-20.684-5.967c-11.734-0.895-24.378,0.464-37.923,4.075
					c-8.118,2.022-14.677,5.816-19.681,11.382c-8.095,8.917-13.059,22.235-14.89,39.96c-0.932,8.718-0.915,17.554,0.047,26.502
					c0.001,0.007,0.002,0.014,0.002,0.021c-2.263-0.463-5.021-0.749-8.281-0.856c-7.637-0.183-15.271-0.371-22.904-0.556
					c-8.802-0.348-16.349-1.046-22.639-2.094l-2.198-0.411c-6.039-1.361-10.842-3.288-14.414-5.779l-0.235-0.189
					c-2.047-1.647-3.696-3.624-4.949-5.935c-1.406-3.728-1.683-7.649-0.832-11.764c1.027-5.139,3.5-10.216,7.415-15.236
					l-0.023-0.213l0.38-0.472c0.664-0.502,1.32-1.075,1.971-1.719l0.663,0.144l0.448,0.166c2.11,0.925,4.33,2.196,6.659,3.81
					l0.236,0.191l0.236,0.19c6.29,5.073,10.315,11.106,12.073,18.1c0.543,2.385,2.85,4.149,6.925,5.29
					c4.073,1.146,9.021,1.402,14.847,0.775c5.679-0.609,10.561-1.996,14.639-4.159c4.078-2.162,5.859-4.292,5.348-6.392
					c-3.297-13.293-11.678-23.099-25.142-29.411c-11.655-5.499-24.936-7.451-39.851-5.848
					c-25.709,2.762-41.511,14.158-47.404,34.186c-1.245,4.445-1.67,8.514-1.274,12.206c0.565,5.256,2.7,9.769,6.412,13.536
					c4.667,4.671,11.829,8.5,21.491,11.484c11.896,3.752,29.871,5.915,53.929,6.489c-1.877,3.941-5.226,9.543-10.047,16.813
					c-4.107,5.904-7.573,10.441-10.39,13.617l-0.191,0.236c-3.06-4.414-6.185-8.746-9.371-13.002
					c-3.721-5.203-7.162-9.145-10.321-11.823c-4.421-3.69-11.033-5.063-19.839-4.118c-8.522,0.915-14.69,3.016-18.504,6.298
					c-1.853,1.493-2.692,3.021-2.524,4.583c0.076,0.711,0.428,1.319,1.057,1.825c3.632,3.057,7.734,7.789,12.301,14.195
					c5.445,7.894,9.143,12.886,11.092,14.972c5.687,6.144,11.616,9.85,17.789,11.127c6.171,1.276,12.31,1.588,18.419,0.931
					c7.525-0.809,14.192-2.958,19.994-6.459c9.2-5.298,18.787-15.019,28.762-29.166c4.869-6.791,8.648-12.777,11.355-17.973
					c0.287,1.171,0.566,2.344,0.884,3.512c4.594,16.03,11.536,27.139,20.821,33.323c3.868,2.602,9.078,4.272,15.622,5.002
					c5.662,0.543,12.246,0.338,19.761-0.614c8.379-0.901,15.059-2.265,20.035-4.092c11.909-4.152,23.007-13.172,33.298-27.067
					c0.38-0.472,0.554-0.847,0.524-1.133c-0.229-2.131-5.417-2.938-15.562-2.424c-5.713,0.328-11.023,1.045-15.934,2.143
					c-5.463,1.308-8.566,2.503-9.312,3.586c-4.409,5.792-8.702,10.633-12.879,14.53c-6.572-6.33-11.583-16.212-15.037-29.633
					c11.773-1.407,21.655-3.043,29.645-4.909c20.729-4.954,34.165-12.29,40.307-22.001c4.186-6.484,5.832-13.915,4.932-22.297
					c-0.062-0.59-0.162-1.175-0.247-1.761c3.753,0.165,7.605-0.216,11.566-1.178c-0.992,16.199-0.951,29.27,0.118,39.209
					c0.625,5.827,1.565,11.253,2.827,16.292c4.01,15.948,11.393,27.151,22.145,33.61c6.767,4.159,17.575,5.8,32.424,4.921
					c11.422-0.652,21.147-2.414,29.171-5.289c3.884-1.278,7.245-3.434,10.081-6.471c7.364-7.688,10.099-20.336,8.207-37.949
					c-0.61-5.679-3.466-18.879-8.563-39.596c-2.269-1.049-4.335-1.545-6.195-1.49c-4.197-0.267-9.206-0.088-15.027,0.537
					c-14.062,1.511-20.909,3.324-20.537,5.438c4.818,19.455,7.606,32.015,8.359,37.679c1.921,13.875,0.935,24.758-2.959,32.644
					c-10.076-9.548-16.176-24.194-18.297-43.938c-1.067-9.94-0.731-28.87,1.011-56.786l11.757-4.928
					c24.361-9.944,42.369-18.847,54.024-26.708c3.73-2.697,5.485-5.115,5.256-7.245C384.896,136.957,382.639,135.01,378.4,133.667z
					 M210.651,232.181c-1.427,1.446-3.142,2.852-5.15,4.217c-0.666,0.502-1.139,0.769-1.423,0.799
					c-2.419,1.554-4.671,2.657-6.756,3.312l-0.403,0.26c-3.603,1.25-7.319,2.08-11.154,2.491l-2.557,0.275
					c-0.699-3.805-1.242-7.55-1.639-11.246c-1.48-13.775-0.796-26.78,2.059-39.014c2.325-10.449,6.045-18.607,11.163-24.475
					c6.327,4.062,11.629,9.635,15.912,16.717c4.279,7.083,6.818,14.32,7.611,21.705
					C219.397,217.308,216.843,225.627,210.651,232.181z"/>
			</g>
			<g>
				<path class="st7" d="M554.581,291.457c-4.18,0-8.225-0.591-12.023-1.758l-0.116-0.037c-11.836-3.811-14.41-11.892-14.891-16.37
					c-0.557-5.185-0.938-11.986-1.146-20.577c-3.668,2.426-7.308,4.626-10.9,6.587c-13.605,7.599-25.121,12.301-35.129,14.335
					c-4.42,0.878-8.515,1.319-12.209,1.319c-2.586,0-5.051-0.215-7.327-0.64c-3.38-0.63-13.622-2.54-16.99-11.046
					c-7.445-17.793-12.408-39.969-14.752-65.915c-1.894-20.339-2.425-41.781-1.577-63.705c0.325-7.149,4.355-19.414,27.721-21.923
					c1.875-0.202,3.72-0.304,5.481-0.304c5.086,0,9.763,0.85,13.902,2.526c11.381,4.571,12.806,11.947,12.64,15.936
					c-0.768,20.273-0.363,39.943,1.201,58.431c1.056,11.591,2.491,22.208,4.284,31.703c1.985-1.438,3.954-2.928,5.901-4.462
					c4.589-3.603,10.788-5.776,18.967-6.656c1.882-0.202,3.732-0.304,5.502-0.304c1.058,0,2.098,0.037,3.119,0.109
					c-0.107-7.751-0.374-14.592-0.797-20.479c-1.458,0.268-2.842,0.471-4.159,0.613c-2.099,0.226-4.122,0.34-6.016,0.34
					c-13.854,0-20.481-6.155-23.609-11.382c-1.39-2.217-2.229-4.592-2.493-7.061c-0.474-4.408,0.543-10.884,8.057-16.727
					c3.91-3.11,8.224-5.242,12.823-6.338c2.749-0.701,5.242-1.374,7.416-2c0.936-0.318,1.757-0.619,2.446-0.896l0.659-0.297
					c3.285-1.396,8.282-3.347,14.853-5.799c0.489-0.184,0.98-0.361,1.476-0.532c-4.791-3.488-5.957-7.835-6.215-10.23
					c-0.606-5.652,1.506-13.491,15.013-18.758c4.333-1.677,8.92-2.781,13.654-3.289c1.922-0.207,3.8-0.312,5.581-0.312
					c7.009,0,13.026,1.616,17.885,4.802c17.174,11.295,31.899,26.902,43.93,46.527c2.39-4.72,4.19-8.419,5.387-11.061
					c4.504-9.895,7.312-18.457,8.358-25.467c1.052-7.672,6.703-17.247,27.586-19.491c2.101-0.226,4.161-0.34,6.124-0.34
					c2.945,0,5.763,0.258,8.42,0.769c5.851-5.644,13.219-9.614,21.925-11.796c11.534-3.068,22.661-4.625,33.072-4.625
					c2.617,0,5.235,0.098,7.781,0.292c9.274,0.679,17.537,3.089,24.53,7.163l0.099,0.059c8.025,4.813,15.058,11.668,20.903,20.374
					c5.93,8.825,9.463,18.203,10.501,27.869c1.122,10.439-1.004,19.907-6.318,28.14c-6.714,10.613-19.49,18.54-38.918,24.082
					c4.431-0.824,9.143-1.382,14.051-1.663c2.174-0.11,4.128-0.164,5.869-0.164c4.926,0,18.013,0,19.155,10.608
					c0.2,1.836-0.046,4.636-2.322,7.564c-11.298,15.221-23.886,25.34-37.417,30.075c-5.696,2.083-12.901,3.574-22.021,4.557
					c-5.109,0.644-9.912,0.97-14.276,0.97c-2.573,0-5.059-0.113-7.388-0.336l-0.139-0.015c-7.972-0.889-14.583-3.069-19.65-6.48
					c-11.031-7.345-19.27-20.242-24.448-38.308c0,0-0.241-0.888-0.344-1.276c-1.923,4.055-3.327,7.233-4.203,9.515
					c-4.452,11.451-6.392,21.961-5.778,31.275c0.521,6.58-2.727,12.465-8.924,16.159c-4.476,2.668-10.671,4.396-18.938,5.286
					c-2.726,0.292-5.288,0.441-7.616,0.441c-18.059,0-22.697-9.275-23.848-14.895c-3.282-14.823-7.282-28.401-11.971-40.666
					c0.06,5.31,0.058,11.106-0.005,17.416c-0.195,19.763,0.219,34.554,1.229,43.962c0.483,4.502-0.352,12.984-11.364,19.225
					c-4.872,2.737-10.312,4.438-16.195,5.071C557.937,291.364,556.233,291.457,554.581,291.457z M729.377,198.325
					c1.194,3.124,2.508,5.916,3.938,8.368c1.631-1.895,3.284-3.94,4.952-6.127c1.656-2.276,4.122-3.874,8.498-5.335
					C741.637,196.345,735.825,197.379,729.377,198.325z M729.25,121.139c-1.812,3.721-3.286,8.123-4.409,13.168
					c-2.63,11.275-3.26,23.39-1.895,36.097c0.068,0.636,0.142,1.273,0.22,1.912c0.758-0.194,1.51-0.41,2.252-0.647l0.471-0.304
					l1.166-0.366c1.313-0.413,2.856-1.185,4.585-2.296l1.794-1.152l0.151-0.016c1.169-0.841,2.184-1.689,3.022-2.53
					c4.34-4.635,5.989-10.277,5.188-17.744c-0.649-6.034-2.791-12.094-6.366-18.011C733.593,126.213,731.528,123.503,729.25,121.139
					z"/>
			</g>
			<g>
				<path class="st7" d="M787.547,163.896c4.186-6.484,5.832-13.915,4.932-22.297c-0.885-8.236-3.894-16.176-9.024-23.813
					c-5.129-7.639-11.151-13.529-18.061-17.673c-5.826-3.394-12.722-5.383-20.684-5.966c-11.734-0.894-24.377,0.463-37.923,4.074
					c-8.118,2.023-14.678,5.817-19.682,11.382c-0.541,0.596-1.066,1.214-1.579,1.849c-0.407-0.157-0.831-0.312-1.284-0.462
					c-4.319-1.403-9.389-1.794-15.21-1.168c-12.218,1.312-18.763,5.249-19.637,11.809c-1.167,7.884-4.188,17.188-9.069,27.912
					c-2.325,5.136-6.766,13.948-13.325,26.432c-12.653-25.506-29.031-44.867-49.126-58.083c-4.328-2.838-10.187-3.862-17.57-3.068
					c-3.979,0.427-7.761,1.338-11.345,2.725c-6.619,2.581-9.73,5.716-9.334,9.409c0.184,1.704,1.276,3.17,3.272,4.391
					c3.871,2.601,7.468,5.305,10.786,8.108l0.707,0.569c1.602,1.328,3.215,2.814,4.835,4.426c-2.637-0.42-5.664-0.456-9.105-0.085
					c-3.979,0.427-7.83,1.346-11.558,2.749c-6.494,2.423-11.32,4.308-14.479,5.65l-0.617,0.282c-0.964,0.394-2.07,0.799-3.316,1.219
					c-2.372,0.686-5.021,1.4-7.959,2.149c-3.363,0.791-6.502,2.352-9.411,4.674c-3.448,2.669-5.005,5.568-4.67,8.69
					c0.122,1.138,0.531,2.243,1.219,3.317c3.34,5.676,10.335,7.941,20.988,6.797c3.549-0.382,7.9-1.352,13.049-2.911
					c1.364,10.238,2.004,24.633,1.918,43.17c-0.486-0.244-1.005-0.476-1.558-0.695c-4.275-1.697-9.326-2.231-15.149-1.606
					c-6.392,0.687-11.177,2.278-14.357,4.775c-5.697,4.491-11.51,8.565-17.437,12.218c-3.252-12.868-5.682-28.123-7.288-45.768
					c-1.603-18.934-2.012-38.791-1.226-59.564c0.12-2.886-2.221-5.29-7.025-7.22c-4.207-1.704-9.223-2.242-15.045-1.616
					c-12.782,1.373-19.347,5.816-19.688,13.322c-0.837,21.641-0.32,42.489,1.547,62.547c2.275,25.186,6.984,46.305,14.133,63.35
					c1.001,2.625,4.431,4.48,10.297,5.574c4.399,0.821,9.763,0.606,16.094-0.651c8.997-1.828,19.867-6.299,32.609-13.416
					c7.842-4.279,15.849-9.717,24.018-16.316c0.008,16.87,0.436,29.295,1.289,37.245c0.442,4.118,3.344,7.039,8.701,8.764
					c4.156,1.276,8.653,1.655,13.483,1.137c4.687-0.504,8.927-1.821,12.721-3.953c5.009-2.838,7.295-6.316,6.854-10.434
					c-1.053-9.801-1.479-24.803-1.28-45.013c0.201-20.204-0.241-35.352-1.326-45.437c-0.611-5.703-1.514-11.087-2.662-16.199
					c14.888,20.987,26.152,48.677,33.769,83.11c1.254,6.333,8.487,8.789,21.697,7.37c13.773-1.48,20.392-5.424,19.849-11.832
					c-0.718-10.697,1.396-22.417,6.352-35.164c2.243-5.844,7.476-16.676,15.688-32.503c0.473-0.913,0.926-1.809,1.384-2.708
					c0.122,2.191,0.301,4.389,0.536,6.595c0.764,7.104,2.092,14.144,3.993,21.123c4.595,16.03,11.536,27.139,20.822,33.322
					c3.867,2.603,9.078,4.272,15.623,5.002c5.661,0.543,12.244,0.337,19.76-0.614c8.379-0.899,15.059-2.264,20.034-4.092
					c11.909-4.15,23.008-13.173,33.298-27.066c0.38-0.473,0.557-0.848,0.525-1.135c-0.229-2.13-5.418-2.936-15.562-2.423
					c-5.714,0.327-11.024,1.043-15.934,2.143c-5.463,1.308-8.567,2.503-9.313,3.587c-4.408,5.791-8.7,10.632-12.878,14.53
					c-6.573-6.332-11.583-16.214-15.036-29.634c11.773-1.408,21.655-3.043,29.645-4.909
					C767.969,180.943,781.404,173.607,787.547,163.896z M737.931,175.477c-0.668,0.501-1.141,0.768-1.425,0.798
					c-2.417,1.553-4.67,2.657-6.756,3.312l-0.402,0.26c-3.603,1.25-7.319,2.079-11.154,2.492l-2.556,0.274
					c-0.699-3.804-1.242-7.55-1.64-11.246c-1.48-13.775-0.796-26.78,2.058-39.014c2.325-10.449,6.047-18.606,11.164-24.475
					c6.326,4.062,11.629,9.635,15.912,16.717c4.28,7.083,6.817,14.32,7.611,21.705c1.083,10.086-1.471,18.405-7.663,24.959
					C741.654,172.705,739.94,174.111,737.931,175.477z"/>
			</g>
		</g>
	</g>
	<g id="set-color">
		<g>
			<g>
				<linearGradient id="SVGID_1_" gradientUnits="userSpaceOnUse" x1="202.6772" y1="308.5293" x2="202.6772" y2="132.2964">
					<stop  offset="0" style="stop-color:#FFF200"/>
					<stop  offset="1" style="stop-color:#FBB040"/>
				</linearGradient>
				<path class="st2" d="M377.79,133.667c-4.238-1.34-9.27-1.697-15.094-1.072c-6.391,0.686-11.199,2.063-14.426,4.135
					c-7.354,5.1-15.266,9.688-23.736,13.757l-1.445,0.586l-1.637,0.823c-2.197,0.956-4.328,1.831-6.398,2.626l-0.806,0.518
					c-0.155-9.465-1.251-16.316-3.285-20.552c-2.269-1.049-4.335-1.543-6.194-1.489c-4.182-0.123-9.184,0.124-15.006,0.75
					c-2.273,0.244-5.872,0.845-10.797,1.806c-6.885,1.46-10.066,2.591-9.549,3.397c1.502,3.286,2.492,7.134,2.963,11.534
					c0.428,3.979,0.439,11.449,0.037,22.409c-7.196,3.329-13.646,6.707-19.37,10.133c-0.811-1.45-1.672-2.893-2.632-4.321
					c-5.13-7.639-11.149-13.529-18.061-17.672c-5.826-3.394-12.722-5.383-20.684-5.967c-11.734-0.895-24.378,0.464-37.923,4.075
					c-8.118,2.022-14.677,5.816-19.681,11.382c-8.096,8.917-13.059,22.235-14.891,39.96c-0.932,8.718-0.914,17.554,0.047,26.502
					c0.002,0.007,0.003,0.014,0.003,0.021c-2.263-0.463-5.021-0.749-8.281-0.856c-7.637-0.183-15.271-0.371-22.904-0.556
					c-8.802-0.348-16.349-1.046-22.639-2.094l-2.198-0.411c-6.039-1.361-10.842-3.288-14.414-5.779l-0.235-0.189
					c-2.047-1.647-3.696-3.624-4.949-5.935c-1.406-3.728-1.683-7.649-0.832-11.764c1.027-5.139,3.5-10.216,7.415-15.236
					l-0.023-0.213l0.38-0.472c0.664-0.502,1.32-1.075,1.971-1.719l0.663,0.144l0.448,0.166c2.11,0.925,4.33,2.196,6.659,3.81
					l0.236,0.191l0.236,0.19c6.29,5.073,10.315,11.106,12.073,18.1c0.544,2.385,2.851,4.149,6.926,5.29
					c4.073,1.146,9.021,1.402,14.847,0.775c5.679-0.609,10.561-1.996,14.64-4.159c4.078-2.162,5.859-4.292,5.348-6.392
					c-3.298-13.293-11.679-23.099-25.143-29.411c-11.655-5.499-24.936-7.451-39.851-5.848
					c-25.709,2.762-41.511,14.158-47.404,34.186c-1.245,4.445-1.67,8.514-1.274,12.206c0.565,5.256,2.7,9.769,6.412,13.536
					c4.667,4.671,11.829,8.5,21.491,11.484c11.896,3.752,29.871,5.915,53.929,6.489c-1.878,3.941-5.227,9.543-10.048,16.813
					c-4.107,5.904-7.573,10.441-10.39,13.617l-0.191,0.236c-3.06-4.414-6.185-8.746-9.371-13.002
					c-3.721-5.203-7.162-9.145-10.321-11.823c-4.421-3.69-11.033-5.063-19.839-4.118c-8.522,0.915-14.69,3.016-18.504,6.298
					c-1.853,1.493-2.692,3.021-2.524,4.583c0.076,0.711,0.428,1.319,1.057,1.825c3.632,3.057,7.734,7.789,12.301,14.195
					c5.445,7.894,9.143,12.886,11.092,14.972c5.687,6.144,11.616,9.85,17.789,11.127c6.171,1.276,12.31,1.588,18.419,0.931
					c7.525-0.809,14.191-2.958,19.994-6.459c9.2-5.298,18.787-15.019,28.762-29.166c4.869-6.791,8.648-12.777,11.355-17.973
					c0.287,1.171,0.566,2.344,0.884,3.512c4.595,16.03,11.536,27.139,20.821,33.323c3.868,2.602,9.078,4.272,15.622,5.002
					c5.662,0.543,12.246,0.338,19.761-0.614c8.379-0.901,15.059-2.265,20.035-4.092c11.908-4.152,23.007-13.172,33.298-27.067
					c0.38-0.472,0.554-0.847,0.524-1.133c-0.229-2.131-5.416-2.938-15.562-2.424c-5.713,0.328-11.022,1.045-15.934,2.143
					c-5.463,1.308-8.566,2.503-9.312,3.586c-4.409,5.792-8.702,10.633-12.879,14.53c-6.572-6.33-11.583-16.212-15.036-29.633
					c11.772-1.407,21.654-3.043,29.645-4.909c20.729-4.954,34.164-12.29,40.307-22.001c4.187-6.484,5.832-13.915,4.933-22.297
					c-0.062-0.59-0.162-1.175-0.247-1.761c3.754,0.165,7.605-0.216,11.566-1.178c-0.992,16.199-0.951,29.27,0.117,39.209
					c0.626,5.827,1.565,11.253,2.828,16.292c4.01,15.948,11.393,27.151,22.145,33.61c6.768,4.159,17.574,5.8,32.424,4.921
					c11.423-0.652,21.147-2.414,29.172-5.289c3.884-1.278,7.245-3.434,10.081-6.471c7.364-7.688,10.099-20.336,8.207-37.949
					c-0.61-5.679-3.466-18.879-8.563-39.596c-2.269-1.049-4.335-1.545-6.195-1.49c-4.196-0.267-9.205-0.088-15.027,0.537
					c-14.062,1.511-20.908,3.324-20.537,5.438c4.818,19.455,7.606,32.015,8.359,37.679c1.922,13.875,0.936,24.758-2.959,32.644
					c-10.076-9.548-16.176-24.194-18.297-43.938c-1.067-9.94-0.73-28.87,1.011-56.786l11.757-4.928
					c24.361-9.944,42.369-18.847,54.023-26.708c3.73-2.697,5.486-5.115,5.256-7.245C384.286,136.957,382.029,135.009,377.79,133.667
					z M210.041,232.181c-1.427,1.446-3.142,2.852-5.15,4.217c-0.665,0.502-1.14,0.769-1.423,0.799
					c-2.419,1.554-4.672,2.657-6.756,3.312l-0.403,0.26c-3.603,1.25-7.319,2.08-11.153,2.491l-2.558,0.275
					c-0.698-3.805-1.242-7.55-1.639-11.246c-1.48-13.775-0.796-26.78,2.059-39.014c2.325-10.449,6.046-18.607,11.163-24.475
					c6.326,4.062,11.629,9.635,15.912,16.717c4.279,7.083,6.818,14.32,7.611,21.705
					C218.788,217.308,216.233,225.626,210.041,232.181z"/>
				<linearGradient id="SVGID_2_" gradientUnits="userSpaceOnUse" x1="385.5796" y1="220.4126" x2="19.7769" y2="220.4126">
					<stop  offset="0" style="stop-color:#FFF200"/>
					<stop  offset="1" style="stop-color:#FBB040"/>
				</linearGradient>
				<path class="st3" d="M368.016,132.296c3.626,0,6.884,0.457,9.773,1.371c4.239,1.342,6.496,3.29,6.77,5.846
					c0.23,2.13-1.525,4.548-5.256,7.245c-11.654,7.861-29.662,16.764-54.023,26.708l-11.757,4.928
					c-1.741,27.917-2.078,46.846-1.011,56.786c2.121,19.744,8.221,34.39,18.297,43.938c3.895-7.886,4.881-18.769,2.959-32.644
					c-0.753-5.664-3.541-18.224-8.359-37.679c-0.371-2.114,6.476-3.928,20.537-5.438c4.08-0.438,7.76-0.657,11.042-0.657
					c1.401,0,2.73,0.04,3.985,0.12c0.093-0.003,0.186-0.004,0.279-0.004c1.788,0,3.761,0.497,5.917,1.494
					c5.098,20.717,7.953,33.917,8.563,39.596c1.892,17.613-0.843,30.261-8.207,37.949c-2.836,3.037-6.197,5.192-10.081,6.471
					c-8.024,2.875-17.749,4.637-29.172,5.289c-2.589,0.153-5.054,0.229-7.397,0.229c-11.096,0-19.439-1.717-25.026-5.151
					c-10.752-6.459-18.135-17.663-22.145-33.61c-1.263-5.038-2.202-10.465-2.828-16.292c-1.068-9.94-1.109-23.011-0.117-39.209
					c-3.366,0.817-6.653,1.215-9.869,1.215c-0.568,0-1.134-0.012-1.697-0.037c0.085,0.586,0.185,1.171,0.247,1.761
					c0.899,8.382-0.746,15.812-4.933,22.297c-6.143,9.711-19.578,17.047-40.307,22.001c-7.99,1.866-17.872,3.502-29.645,4.909
					c3.453,13.421,8.464,23.303,15.036,29.633c4.177-3.896,8.47-8.738,12.879-14.53c0.745-1.083,3.849-2.278,9.312-3.586
					c4.911-1.098,10.221-1.815,15.934-2.143c1.973-0.1,3.758-0.15,5.355-0.15c6.62,0,10.023,0.858,10.207,2.574
					c0.029,0.287-0.145,0.661-0.524,1.133c-10.291,13.895-21.39,22.916-33.298,27.067c-4.977,1.828-11.656,3.191-20.035,4.092
					c-4.787,0.606-9.195,0.91-13.229,0.91c-2.299,0-4.476-0.099-6.532-0.296c-6.544-0.73-11.754-2.4-15.622-5.002
					c-9.285-6.184-16.227-17.292-20.821-33.323c-0.317-1.168-0.597-2.341-0.884-3.512c-2.707,5.196-6.486,11.183-11.355,17.973
					c-9.975,14.146-19.562,23.868-28.762,29.166c-5.803,3.5-12.469,5.65-19.994,6.459c-2.073,0.223-4.15,0.334-6.23,0.334
					c-4.05,0-8.113-0.422-12.189-1.266c-6.172-1.277-12.102-4.983-17.789-11.127c-1.949-2.086-5.647-7.078-11.092-14.972
					c-4.567-6.406-8.668-11.138-12.301-14.195c-0.629-0.506-0.981-1.113-1.057-1.825c-0.168-1.562,0.671-3.09,2.524-4.583
					c3.813-3.282,9.982-5.383,18.504-6.298c1.796-0.193,3.5-0.29,5.113-0.29c6.297,0,11.206,1.47,14.726,4.407
					c3.159,2.678,6.6,6.62,10.321,11.823c3.186,4.257,6.311,8.588,9.371,13.002l0.191-0.236c2.817-3.175,6.283-7.713,10.39-13.617
					c4.821-7.27,8.17-12.872,10.048-16.813c-24.059-0.574-42.033-2.736-53.929-6.489c-9.662-2.984-16.824-6.813-21.491-11.484
					c-3.712-3.767-5.847-8.279-6.412-13.536c-0.396-3.692,0.029-7.761,1.274-12.206c5.894-20.028,21.695-31.424,47.404-34.186
					c3.364-0.361,6.643-0.542,9.84-0.542c10.98,0,20.983,2.131,30.01,6.39c13.464,6.312,21.845,16.118,25.143,29.411
					c0.512,2.1-1.27,4.23-5.348,6.392c-4.079,2.163-8.961,3.549-14.64,4.159c-2.065,0.222-4.019,0.333-5.864,0.333
					c-3.359,0-6.354-0.369-8.983-1.109c-4.075-1.141-6.382-2.904-6.926-5.29c-1.757-6.994-5.783-13.026-12.073-18.1l-0.236-0.19
					l-0.236-0.191c-2.329-1.614-4.548-2.885-6.659-3.81l-0.448-0.166l-0.663-0.144c-0.651,0.644-1.308,1.217-1.971,1.719
					l-0.38,0.472l0.023,0.213c-3.916,5.02-6.388,10.097-7.415,15.236c-0.851,4.115-0.574,8.036,0.832,11.764
					c1.253,2.311,2.901,4.287,4.949,5.935l0.235,0.189c3.571,2.491,8.375,4.417,14.414,5.779l2.198,0.411
					c6.29,1.048,13.837,1.747,22.639,2.094c7.634,0.185,15.268,0.373,22.904,0.556c3.26,0.107,6.019,0.394,8.281,0.856
					c0-0.007-0.001-0.014-0.003-0.021c-0.961-8.948-0.979-17.784-0.047-26.502c1.832-17.725,6.795-31.043,14.891-39.96
					c5.004-5.565,11.562-9.359,19.681-11.382c10.856-2.894,21.132-4.341,30.827-4.341c2.401,0,4.767,0.089,7.096,0.267
					c7.962,0.583,14.857,2.573,20.684,5.967c6.911,4.144,12.931,10.034,18.061,17.672c0.96,1.428,1.821,2.871,2.632,4.321
					c5.725-3.426,12.174-6.804,19.37-10.133c0.402-10.96,0.391-18.431-0.037-22.409c-0.471-4.4-1.461-8.249-2.963-11.534
					c-0.518-0.807,2.664-1.938,9.549-3.397c4.925-0.961,8.523-1.562,10.797-1.806c4.858-0.522,9.145-0.78,12.86-0.78
					c0.738,0,1.453,0.01,2.146,0.03c0.092-0.002,0.184-0.004,0.277-0.004c1.787,0,3.761,0.496,5.917,1.493
					c2.034,4.236,3.13,11.087,3.285,20.552l0.806-0.518c2.07-0.795,4.201-1.671,6.398-2.626l1.637-0.823l1.445-0.586
					c8.471-4.069,16.383-8.658,23.736-13.757c3.227-2.071,8.035-3.449,14.426-4.135C364.55,132.396,366.323,132.296,368.016,132.296
					 M182.597,243.535l2.558-0.275c3.834-0.412,7.551-1.242,11.153-2.491l0.403-0.26c2.084-0.654,4.337-1.758,6.756-3.312
					c0.283-0.03,0.758-0.296,1.423-0.799c2.009-1.365,3.724-2.771,5.15-4.217c6.192-6.554,8.747-14.873,7.663-24.958
					c-0.793-7.385-3.332-14.622-7.611-21.705c-4.283-7.082-9.586-12.655-15.912-16.717c-5.117,5.868-8.838,14.026-11.163,24.475
					c-2.854,12.234-3.539,25.238-2.059,39.014C181.355,235.984,181.899,239.729,182.597,243.535 M368.016,131.296
					c-1.721,0-3.546,0.103-5.427,0.305c-6.518,0.7-11.517,2.142-14.859,4.288c-7.312,5.07-15.242,9.667-23.601,13.684l-1.417,0.574
					l-0.037,0.015l-0.036,0.018l-1.611,0.81c-1.996,0.868-3.95,1.674-5.817,2.4c-0.255-8.738-1.379-15.238-3.347-19.335
					l-0.155-0.324l-0.327-0.151c-2.275-1.052-4.408-1.585-6.337-1.585c-0.092,0-0.185,0.001-0.276,0.003
					c-0.693-0.02-1.409-0.03-2.146-0.03c-3.752,0-8.115,0.264-12.967,0.786c-2.296,0.246-5.957,0.858-10.881,1.819
					c-8.876,1.882-9.958,2.854-10.307,3.689c-0.159,0.38-0.136,0.793,0.06,1.149c1.442,3.169,2.403,6.931,2.858,11.181
					c0.412,3.835,0.43,11.119,0.054,21.654c-6.584,3.065-12.642,6.224-18.027,9.401c-0.737-1.28-1.451-2.431-2.168-3.498
					c-5.188-7.725-11.371-13.772-18.376-17.972c-5.943-3.462-13.046-5.515-21.125-6.107c-2.341-0.178-4.754-0.269-7.169-0.269
					c-9.736,0-20.194,1.472-31.084,4.375c-8.259,2.058-15.05,5.989-20.167,11.68c-8.201,9.032-13.296,22.668-15.142,40.525
					c-0.888,8.313-0.917,16.853-0.086,25.403c-2.043-0.332-4.43-0.544-7.118-0.633c-4.942-0.119-9.874-0.239-14.805-0.359
					l-8.107-0.197c-8.704-0.344-16.278-1.044-22.499-2.081l-2.179-0.407c-5.83-1.315-10.551-3.2-13.997-5.596l-0.209-0.168
					c-1.916-1.542-3.485-3.417-4.664-5.572c-1.311-3.511-1.568-7.26-0.765-11.145c0.992-4.963,3.422-9.949,7.225-14.824l0.25-0.32
					l-0.022-0.203l0.043-0.054c0.527-0.405,1.057-0.858,1.579-1.35l0.071,0.015l0.354,0.131c2.023,0.89,4.188,2.129,6.434,3.684
					l0.207,0.167l0.238,0.191c6.089,4.912,10.036,10.821,11.73,17.564c0.624,2.739,3.192,4.768,7.626,6.009
					c2.702,0.76,5.815,1.146,9.252,1.146c1.87,0,3.879-0.114,5.971-0.339c5.782-0.62,10.829-2.057,15.001-4.27
					c4.514-2.393,6.482-4.92,5.851-7.512c-3.36-13.544-12.003-23.663-25.69-30.08c-9.119-4.303-19.359-6.485-30.435-6.485
					c-3.217,0-6.564,0.184-9.947,0.548c-26.029,2.796-42.266,14.538-48.257,34.898c-1.277,4.561-1.717,8.794-1.309,12.595
					c0.587,5.465,2.839,10.22,6.693,14.131c4.77,4.773,12.139,8.721,21.909,11.738c11.661,3.678,29.365,5.862,52.633,6.493
					c-1.94,3.784-5.059,8.92-9.29,15.3c-3.737,5.372-6.987,9.667-9.665,12.773c-2.781-3.986-5.688-8.007-8.653-11.97
					c-3.738-5.228-7.267-9.267-10.475-11.986c-3.694-3.083-8.864-4.644-15.372-4.645c-1.641,0-3.397,0.1-5.22,0.295
					c-8.685,0.932-15.094,3.13-19.049,6.534c-2.1,1.691-3.073,3.531-2.866,5.448c0.104,0.98,0.583,1.821,1.425,2.497
					c3.536,2.976,7.617,7.689,12.113,13.996c5.515,7.996,9.173,12.931,11.175,15.074c5.798,6.264,11.962,10.109,18.317,11.424
					c4.126,0.853,8.295,1.286,12.392,1.286c2.106,0,4.238-0.115,6.337-0.34c7.645-0.822,14.51-3.042,20.404-6.597
					c9.267-5.336,19.051-15.247,29.062-29.446c4.162-5.804,7.582-11.105,10.189-15.794c0.087,0.34,0.176,0.68,0.268,1.019
					c4.644,16.203,11.786,27.602,21.232,33.893c3.986,2.681,9.393,4.419,16.065,5.163c2.092,0.201,4.322,0.302,6.643,0.302
					c4.054,0,8.547-0.309,13.354-0.917c8.406-0.904,15.227-2.299,20.254-4.146c12.031-4.194,23.394-13.418,33.757-27.411
					c0.33-0.409,0.792-1.081,0.716-1.83c-0.258-2.403-3.712-3.473-11.202-3.473c-1.606,0-3.425,0.051-5.406,0.151
					c-5.73,0.329-11.145,1.058-16.101,2.166c-7.609,1.822-9.296,3.092-9.917,3.996c-4.078,5.354-8.131,9.971-12.039,13.705
					c-5.899-6.017-10.535-15.22-13.794-27.387c11.263-1.375,20.884-2.985,28.614-4.791c20.897-4.994,34.665-12.544,40.924-22.44
					c4.29-6.645,6.001-14.365,5.082-22.938c-0.022-0.208-0.048-0.415-0.077-0.621c0.178,0.002,0.355,0.003,0.533,0.003
					c2.881,0,5.833-0.317,8.792-0.945c-0.908,15.565-0.84,28.36,0.201,38.046c0.629,5.861,1.589,11.388,2.852,16.428
					c4.058,16.139,11.662,27.653,22.6,34.225c5.714,3.511,14.31,5.293,25.542,5.293c2.351,0,4.86-0.078,7.457-0.231
					c11.467-0.654,21.375-2.453,29.45-5.346c4.006-1.318,7.539-3.585,10.475-6.729c7.533-7.864,10.386-20.9,8.47-38.738
					c-0.612-5.692-3.5-19.059-8.586-39.728l-0.115-0.467l-0.436-0.202c-2.276-1.053-4.408-1.586-6.336-1.586
					c-0.087,0-0.174,0.001-0.26,0.003c-1.258-0.079-2.604-0.119-4.004-0.119c-3.303,0-7.054,0.223-11.149,0.663
					c-16.614,1.785-19.95,3.616-21,5.011c-0.466,0.619-0.483,1.208-0.415,1.594l0.006,0.034l0.008,0.033
					c4.791,19.343,7.596,31.983,8.339,37.57c1.785,12.884,1.017,23.237-2.279,30.808c-9.264-9.362-14.978-23.597-16.991-42.341
					c-1.048-9.765-0.72-28.602,0.976-55.997l11.184-4.688c24.3-9.919,42.537-18.938,54.196-26.801
					c4.113-2.973,5.966-5.643,5.691-8.182c-0.318-2.973-2.829-5.225-7.462-6.692C375.118,131.773,371.728,131.296,368.016,131.296
					L368.016,131.296z M183.416,242.441c-0.609-3.437-1.101-6.883-1.463-10.259c-1.462-13.604-0.776-26.618,2.038-38.68
					c2.193-9.855,5.683-17.712,10.379-23.381c5.849,3.92,10.848,9.27,14.867,15.914c4.185,6.927,6.699,14.092,7.473,21.294
					c1.046,9.733-1.442,17.863-7.396,24.165c-1.363,1.381-3.045,2.758-4.985,4.077l-0.021,0.014l-0.02,0.015
					c-0.708,0.535-0.955,0.606-0.965,0.609l-0.235,0.025l-0.16,0.122c-2.331,1.497-4.522,2.573-6.515,3.199l-0.128,0.041
					l-0.113,0.073l-0.302,0.195c-3.479,1.197-7.119,2.005-10.82,2.403L183.416,242.441L183.416,242.441z"/>
			</g>
			<g>
				<linearGradient id="SVGID_3_" gradientUnits="userSpaceOnUse" x1="613.811" y1="282.4561" x2="613.811" y2="93.8799">
					<stop  offset="0" style="stop-color:#FFF200"/>
					<stop  offset="1" style="stop-color:#FBB040"/>
				</linearGradient>
				<path class="st4" d="M786.937,163.896c4.186-6.484,5.832-13.915,4.932-22.297c-0.885-8.236-3.894-16.176-9.024-23.813
					c-5.129-7.639-11.151-13.529-18.061-17.673c-5.826-3.394-12.722-5.383-20.684-5.966c-11.734-0.894-24.377,0.463-37.923,4.074
					c-8.118,2.023-14.678,5.817-19.682,11.382c-0.541,0.596-1.066,1.214-1.579,1.849c-0.407-0.157-0.831-0.312-1.284-0.462
					c-4.319-1.403-9.389-1.794-15.21-1.168c-12.218,1.312-18.763,5.249-19.637,11.809c-1.167,7.884-4.188,17.188-9.069,27.912
					c-2.325,5.136-6.766,13.948-13.325,26.432c-12.653-25.506-29.031-44.867-49.126-58.083c-4.328-2.838-10.187-3.862-17.57-3.068
					c-3.979,0.427-7.761,1.338-11.345,2.725c-6.619,2.581-9.73,5.716-9.334,9.409c0.184,1.704,1.276,3.17,3.272,4.391
					c3.871,2.601,7.468,5.305,10.786,8.108l0.707,0.569c1.602,1.328,3.215,2.814,4.835,4.426c-2.637-0.42-5.664-0.456-9.105-0.085
					c-3.979,0.427-7.83,1.346-11.558,2.749c-6.494,2.423-11.32,4.308-14.479,5.65l-0.617,0.282c-0.964,0.394-2.07,0.799-3.316,1.219
					c-2.372,0.686-5.021,1.4-7.959,2.149c-3.363,0.791-6.502,2.352-9.411,4.674c-3.448,2.669-5.005,5.568-4.67,8.69
					c0.122,1.138,0.531,2.243,1.219,3.317c3.34,5.676,10.335,7.941,20.988,6.797c3.549-0.382,7.9-1.352,13.049-2.911
					c1.364,10.238,2.004,24.633,1.918,43.17c-0.486-0.244-1.005-0.476-1.558-0.695c-4.275-1.697-9.326-2.231-15.149-1.606
					c-6.392,0.687-11.177,2.278-14.357,4.775c-5.697,4.491-11.51,8.565-17.437,12.218c-3.252-12.868-5.682-28.123-7.288-45.768
					c-1.603-18.934-2.012-38.791-1.226-59.564c0.12-2.886-2.221-5.29-7.025-7.22c-4.207-1.704-9.223-2.242-15.045-1.616
					c-12.782,1.373-19.347,5.816-19.688,13.322c-0.837,21.641-0.32,42.489,1.547,62.547c2.275,25.186,6.984,46.305,14.133,63.35
					c1.001,2.625,4.431,4.48,10.297,5.574c4.399,0.821,9.763,0.606,16.094-0.651c8.997-1.828,19.867-6.299,32.609-13.416
					c7.842-4.279,15.849-9.717,24.018-16.316c0.008,16.87,0.436,29.295,1.289,37.245c0.442,4.118,3.344,7.039,8.701,8.764
					c4.156,1.276,8.653,1.655,13.483,1.137c4.687-0.504,8.927-1.821,12.721-3.953c5.009-2.838,7.295-6.316,6.854-10.434
					c-1.053-9.801-1.479-24.803-1.28-45.013c0.201-20.204-0.241-35.352-1.326-45.437c-0.611-5.703-1.514-11.087-2.662-16.199
					c14.888,20.987,26.152,48.677,33.769,83.11c1.254,6.333,8.487,8.789,21.697,7.37c13.773-1.48,20.392-5.424,19.849-11.832
					c-0.718-10.697,1.396-22.417,6.352-35.164c2.243-5.844,7.476-16.676,15.688-32.503c0.473-0.913,0.926-1.809,1.384-2.708
					c0.122,2.191,0.301,4.389,0.536,6.595c0.764,7.104,2.092,14.144,3.993,21.123c4.595,16.03,11.536,27.139,20.822,33.322
					c3.867,2.603,9.078,4.272,15.623,5.002c5.661,0.543,12.244,0.337,19.76-0.614c8.379-0.899,15.059-2.264,20.034-4.092
					c11.909-4.15,23.008-13.173,33.298-27.066c0.38-0.473,0.557-0.848,0.525-1.135c-0.229-2.13-5.418-2.936-15.562-2.423
					c-5.714,0.327-11.024,1.043-15.934,2.143c-5.463,1.308-8.567,2.503-9.313,3.587c-4.408,5.791-8.7,10.632-12.878,14.53
					c-6.573-6.332-11.583-16.214-15.036-29.634c11.773-1.408,21.655-3.043,29.645-4.909
					C767.359,180.943,780.793,173.607,786.937,163.896z M737.321,175.477c-0.668,0.501-1.141,0.768-1.425,0.798
					c-2.417,1.553-4.67,2.657-6.756,3.312l-0.402,0.26c-3.603,1.25-7.319,2.079-11.154,2.492l-2.556,0.274
					c-0.699-3.804-1.242-7.55-1.64-11.246c-1.48-13.775-0.796-26.78,2.058-39.014c2.325-10.449,6.047-18.606,11.164-24.475
					c6.326,4.062,11.629,9.635,15.912,16.717c4.28,7.083,6.817,14.32,7.611,21.705c1.083,10.086-1.471,18.405-7.663,24.959
					C741.043,172.704,739.33,174.11,737.321,175.477z"/>
				<linearGradient id="SVGID_4_" gradientUnits="userSpaceOnUse" x1="793.105" y1="188.168" x2="434.5171" y2="188.168">
					<stop  offset="0" style="stop-color:#FFF200"/>
					<stop  offset="1" style="stop-color:#FBB040"/>
				</linearGradient>
				<path class="st5" d="M737.002,93.88c2.401,0,4.768,0.088,7.098,0.266c7.962,0.583,14.857,2.572,20.684,5.966
					c6.909,4.144,12.932,10.034,18.061,17.673c5.131,7.637,8.14,15.578,9.024,23.813c0.9,8.382-0.746,15.813-4.932,22.297
					c-6.144,9.711-19.578,17.047-40.308,22.001c-7.989,1.866-17.871,3.501-29.645,4.909c3.453,13.42,8.463,23.302,15.036,29.634
					c4.178-3.898,8.47-8.74,12.878-14.53c0.746-1.084,3.851-2.279,9.313-3.587c4.909-1.099,10.22-1.815,15.934-2.143
					c1.973-0.1,3.757-0.149,5.354-0.149c6.618,0,10.022,0.856,10.207,2.572c0.031,0.287-0.146,0.662-0.525,1.135
					c-10.29,13.894-21.389,22.916-33.298,27.066c-4.976,1.828-11.655,3.192-20.034,4.092c-4.788,0.606-9.197,0.91-13.231,0.91
					c-2.298,0-4.475-0.099-6.528-0.295c-6.545-0.73-11.756-2.399-15.623-5.002c-9.286-6.183-16.228-17.292-20.822-33.322
					c-1.901-6.979-3.229-14.019-3.993-21.123c-0.235-2.206-0.414-4.403-0.536-6.595c-0.458,0.899-0.911,1.794-1.384,2.708
					c-8.212,15.828-13.444,26.659-15.688,32.503c-4.956,12.747-7.069,24.467-6.352,35.164c0.543,6.408-6.075,10.351-19.849,11.832
					c-2.419,0.26-4.637,0.39-6.654,0.39c-9.003,0-14.019-2.586-15.043-7.759c-7.616-34.434-18.881-62.124-33.769-83.11
					c1.148,5.112,2.051,10.497,2.662,16.199c1.085,10.085,1.527,25.233,1.326,45.437c-0.199,20.209,0.228,35.211,1.28,45.013
					c0.441,4.118-1.845,7.595-6.854,10.434c-3.794,2.131-8.034,3.448-12.721,3.953c-1.396,0.149-2.763,0.225-4.103,0.225
					c-3.297,0-6.426-0.454-9.381-1.361c-5.357-1.725-8.259-4.646-8.701-8.764c-0.854-7.95-1.281-20.375-1.289-37.245
					c-8.169,6.599-16.176,12.037-24.018,16.316c-12.742,7.116-23.612,11.587-32.609,13.416c-3.825,0.76-7.298,1.139-10.417,1.139
					c-2.043,0-3.936-0.163-5.677-0.487c-5.866-1.094-9.296-2.949-10.297-5.574c-7.148-17.045-11.857-38.164-14.133-63.35
					c-1.867-20.059-2.384-40.907-1.547-62.547c0.342-7.505,6.906-11.949,19.688-13.322c1.565-0.168,3.072-0.252,4.521-0.252
					c3.939,0,7.448,0.623,10.524,1.868c4.805,1.93,7.146,4.333,7.025,7.22c-0.786,20.773-0.377,40.63,1.226,59.564
					c1.606,17.646,4.036,32.9,7.288,45.768c5.927-3.653,11.739-7.727,17.437-12.218c3.181-2.497,7.966-4.088,14.357-4.775
					c1.57-0.168,3.083-0.253,4.54-0.253c3.949,0,7.486,0.619,10.609,1.859c0.553,0.219,1.071,0.451,1.558,0.695
					c0.086-18.538-0.554-32.932-1.918-43.17c-5.148,1.559-9.5,2.529-13.049,2.911c-1.787,0.192-3.472,0.288-5.053,0.288
					c-7.845,0-13.156-2.362-15.936-7.085c-0.688-1.075-1.097-2.179-1.219-3.317c-0.335-3.123,1.222-6.021,4.67-8.69
					c2.909-2.323,6.048-3.883,9.411-4.674c2.938-0.749,5.587-1.463,7.959-2.149c1.246-0.42,2.353-0.825,3.316-1.219l0.617-0.282
					c3.158-1.342,7.984-3.227,14.479-5.65c3.728-1.403,7.579-2.322,11.558-2.749c1.589-0.171,3.09-0.256,4.505-0.256
					c1.649,0,3.182,0.115,4.601,0.341c-1.62-1.612-3.233-3.098-4.835-4.426l-0.707-0.569c-3.318-2.803-6.915-5.508-10.786-8.108
					c-1.996-1.221-3.089-2.687-3.272-4.391c-0.396-3.693,2.715-6.828,9.334-9.409c3.584-1.387,7.366-2.298,11.345-2.725
					c1.613-0.173,3.153-0.26,4.621-0.26c5.249,0,9.566,1.11,12.949,3.328c20.095,13.217,36.473,32.578,49.126,58.083
					c6.56-12.483,11-21.295,13.325-26.432c4.881-10.724,7.902-20.028,9.069-27.912c0.874-6.56,7.419-10.496,19.637-11.809
					c1.792-0.192,3.513-0.289,5.163-0.289c3.708,0,7.058,0.486,10.047,1.457c0.453,0.15,0.877,0.305,1.284,0.462
					c0.513-0.635,1.038-1.253,1.579-1.849c5.004-5.565,11.563-9.358,19.682-11.382C717.034,95.326,727.309,93.88,737.002,93.88
					 M715.028,182.612l2.556-0.274c3.835-0.413,7.552-1.242,11.154-2.492l0.402-0.26c2.086-0.655,4.339-1.758,6.756-3.312
					c0.284-0.03,0.757-0.297,1.425-0.798c2.009-1.366,3.723-2.772,5.149-4.218c6.192-6.555,8.746-14.874,7.663-24.959
					c-0.794-7.385-3.331-14.621-7.611-21.705c-4.283-7.083-9.586-12.655-15.912-16.717c-5.117,5.869-8.839,14.026-11.164,24.475
					c-2.854,12.234-3.538,25.238-2.058,39.014C713.786,175.062,714.329,178.808,715.028,182.612 M737.002,92.88
					c-9.737,0-20.195,1.471-31.083,4.374c-8.261,2.059-15.052,5.99-20.167,11.68c-0.378,0.416-0.766,0.862-1.156,1.331
					c-0.223-0.08-0.438-0.155-0.649-0.225c-3.082-1.001-6.566-1.508-10.361-1.508c-1.678,0-3.451,0.099-5.27,0.294
					c-12.679,1.362-19.583,5.625-20.521,12.671c-1.146,7.746-4.172,17.046-8.988,27.629c-2.211,4.884-6.379,13.173-12.396,24.657
					c-12.56-24.697-28.902-43.777-48.596-56.73c-3.534-2.317-8.075-3.493-13.499-3.493c-1.496,0-3.086,0.089-4.728,0.266
					c-4.038,0.433-7.94,1.371-11.6,2.787c-7.062,2.754-10.416,6.269-9.967,10.448c0.218,2.022,1.478,3.75,3.745,5.137
					c3.782,2.542,7.382,5.248,10.662,8.02l0.726,0.584c0.861,0.714,1.757,1.502,2.675,2.354c-0.592-0.032-1.197-0.048-1.813-0.048
					c-1.45,0-3.001,0.088-4.612,0.262c-4.032,0.433-8.003,1.377-11.803,2.807c-6.456,2.409-11.341,4.316-14.518,5.666l-0.641,0.292
					c-0.883,0.36-1.979,0.763-3.221,1.181c-2.278,0.658-4.946,1.378-7.887,2.127c-3.473,0.817-6.772,2.454-9.788,4.862
					c-3.714,2.875-5.413,6.101-5.04,9.578c0.138,1.281,0.599,2.543,1.37,3.75c2.939,4.997,8.591,7.546,16.778,7.546
					c1.609,0,3.346-0.099,5.159-0.294c3.335-0.358,7.401-1.236,12.101-2.611c1.214,9.785,1.807,23.337,1.766,40.33
					c-0.064-0.026-0.13-0.052-0.195-0.078c-3.224-1.28-6.917-1.929-10.978-1.929c-1.485,0-3.049,0.087-4.646,0.259
					c-6.552,0.704-11.554,2.38-14.868,4.982c-5.273,4.157-10.71,7.997-16.181,11.43c-3.062-12.491-5.392-27.38-6.931-44.284
					c-1.592-18.805-2.003-38.804-1.223-59.436c0.139-3.335-2.436-6.09-7.651-8.185c-3.179-1.287-6.846-1.94-10.897-1.94
					c-1.477,0-3.034,0.087-4.627,0.258c-13.29,1.427-20.215,6.228-20.581,14.271c-0.835,21.582-0.312,42.67,1.55,62.686
					c2.275,25.177,7.055,46.59,14.207,63.644c1.132,2.969,4.745,4.998,11.035,6.17c1.794,0.335,3.766,0.504,5.86,0.504
					c3.172,0,6.743-0.39,10.612-1.158c9.062-1.841,20.131-6.391,32.901-13.523c7.334-4.002,14.908-9.082,22.533-15.112
					c0.042,15.813,0.476,27.674,1.292,35.275c0.486,4.526,3.645,7.76,9.389,9.609c3.05,0.937,6.305,1.41,9.688,1.41
					c1.369,0,2.785-0.078,4.209-0.23c4.802-0.517,9.211-1.888,13.104-4.075c5.369-3.043,7.843-6.882,7.357-11.412
					c-1.044-9.717-1.473-24.822-1.274-44.896c0.2-20.147-0.247-35.474-1.332-45.554c-0.413-3.858-0.975-7.684-1.676-11.425
					c13.396,20.31,23.752,46.742,30.812,78.659c1.121,5.662,6.512,8.543,16.02,8.543c2.043,0,4.318-0.133,6.761-0.396
					c14.356-1.543,21.334-5.887,20.738-12.91c-0.703-10.49,1.411-22.176,6.287-34.717c2.185-5.691,7.362-16.428,15.392-31.92
					c0.085,1.017,0.182,2.035,0.29,3.047c0.768,7.141,2.121,14.3,4.022,21.279c4.645,16.204,11.787,27.603,21.233,33.892
					c3.982,2.681,9.39,4.419,16.066,5.164c2.091,0.201,4.319,0.302,6.639,0.302c4.054,0,8.548-0.309,13.357-0.917
					c8.401-0.902,15.222-2.297,20.253-4.146c12.03-4.192,23.393-13.416,33.757-27.41c0.333-0.413,0.798-1.089,0.716-1.838
					c-0.258-2.395-3.713-3.464-11.201-3.464c-1.606,0-3.425,0.051-5.405,0.151c-5.734,0.328-11.149,1.057-16.102,2.165
					c-7.608,1.821-9.296,3.092-9.918,3.996c-4.078,5.354-8.132,9.972-12.038,13.706c-5.899-6.017-10.535-15.221-13.794-27.388
					c11.272-1.376,20.895-2.987,28.613-4.791c20.896-4.995,34.664-12.544,40.925-22.44c4.291-6.647,6.002-14.367,5.081-22.939
					c-0.898-8.362-3.989-16.526-9.188-24.264c-5.185-7.722-11.368-13.769-18.376-17.973c-5.943-3.463-13.048-5.515-21.125-6.106
					C741.832,92.971,739.418,92.88,737.002,92.88L737.002,92.88z M715.846,181.519c-0.606-3.419-1.099-6.866-1.464-10.26
					c-1.462-13.603-0.776-26.616,2.037-38.68c2.193-9.853,5.683-17.71,10.381-23.381c5.85,3.92,10.848,9.27,14.866,15.914
					c4.184,6.924,6.698,14.088,7.473,21.294c1.045,9.734-1.443,17.865-7.396,24.166c-1.366,1.383-3.048,2.76-4.985,4.078
					c-0.741,0.554-0.982,0.63-1.007,0.637l-0.235,0.025l-0.161,0.122c-2.328,1.497-4.521,2.573-6.515,3.199l-0.129,0.041
					l-0.114,0.074l-0.301,0.194c-3.475,1.196-7.114,2.004-10.82,2.403L715.846,181.519L715.846,181.519z"/>
			</g>
		</g>
	</g>
	<g id="setOutline">
		<g>
			<path class="st0" d="M377.79,133.667c-4.238-1.34-9.27-1.697-15.094-1.072c-6.391,0.686-11.199,2.063-14.426,4.135
				c-7.354,5.1-15.266,9.688-23.736,13.757l-1.445,0.586l-1.637,0.823c-2.197,0.956-4.328,1.831-6.398,2.626l-0.806,0.518
				c-0.155-9.465-1.251-16.316-3.285-20.552c-2.269-1.049-4.335-1.543-6.194-1.489c-4.182-0.123-9.184,0.124-15.006,0.75
				c-2.273,0.244-5.872,0.845-10.797,1.806c-6.885,1.46-10.066,2.591-9.549,3.397c1.502,3.286,2.492,7.134,2.963,11.534
				c0.428,3.979,0.439,11.449,0.037,22.409c-7.196,3.329-13.646,6.707-19.37,10.133c-0.811-1.45-1.672-2.893-2.632-4.321
				c-5.13-7.639-11.149-13.529-18.061-17.672c-5.826-3.394-12.722-5.383-20.684-5.967c-11.734-0.895-24.378,0.464-37.923,4.075
				c-8.118,2.022-14.677,5.816-19.681,11.382c-8.096,8.917-13.059,22.235-14.891,39.96c-0.932,8.718-0.914,17.554,0.047,26.502
				c0.002,0.007,0.003,0.014,0.003,0.021c-2.263-0.463-5.021-0.749-8.281-0.856c-7.637-0.183-15.271-0.371-22.904-0.556
				c-8.802-0.348-16.349-1.046-22.639-2.094l-2.198-0.411c-6.039-1.361-10.842-3.288-14.414-5.779l-0.235-0.189
				c-2.047-1.647-3.696-3.624-4.949-5.935c-1.406-3.728-1.683-7.649-0.832-11.764c1.027-5.139,3.5-10.216,7.415-15.236l-0.023-0.213
				l0.38-0.472c0.664-0.502,1.32-1.075,1.971-1.719l0.663,0.144l0.448,0.166c2.11,0.925,4.33,2.196,6.659,3.81l0.236,0.191
				l0.236,0.19c6.29,5.073,10.315,11.106,12.073,18.1c0.544,2.385,2.851,4.149,6.926,5.29c4.073,1.146,9.021,1.402,14.847,0.775
				c5.679-0.609,10.561-1.996,14.64-4.159c4.078-2.162,5.859-4.292,5.348-6.392c-3.298-13.293-11.679-23.099-25.143-29.411
				c-11.655-5.499-24.936-7.451-39.851-5.848c-25.709,2.762-41.511,14.158-47.404,34.186c-1.245,4.445-1.67,8.514-1.274,12.206
				c0.565,5.256,2.7,9.769,6.412,13.536c4.667,4.671,11.829,8.5,21.491,11.484c11.896,3.752,29.871,5.915,53.929,6.489
				c-1.878,3.941-5.227,9.543-10.048,16.813c-4.107,5.904-7.573,10.441-10.39,13.617l-0.191,0.236
				c-3.06-4.414-6.185-8.746-9.371-13.002c-3.721-5.203-7.162-9.145-10.321-11.823c-4.421-3.69-11.033-5.063-19.839-4.118
				c-8.522,0.915-14.69,3.016-18.504,6.298c-1.853,1.493-2.692,3.021-2.524,4.583c0.076,0.711,0.428,1.319,1.057,1.825
				c3.632,3.057,7.734,7.789,12.301,14.195c5.445,7.894,9.143,12.886,11.092,14.972c5.687,6.144,11.616,9.85,17.789,11.127
				c6.171,1.276,12.31,1.588,18.419,0.931c7.525-0.809,14.191-2.958,19.994-6.459c9.2-5.298,18.787-15.019,28.762-29.166
				c4.869-6.791,8.648-12.777,11.355-17.973c0.287,1.171,0.566,2.344,0.884,3.512c4.595,16.03,11.536,27.139,20.821,33.323
				c3.868,2.602,9.078,4.272,15.622,5.002c5.662,0.543,12.246,0.338,19.761-0.614c8.379-0.901,15.059-2.265,20.035-4.092
				c11.908-4.152,23.007-13.172,33.298-27.067c0.38-0.472,0.554-0.847,0.524-1.133c-0.229-2.131-5.416-2.938-15.562-2.424
				c-5.713,0.328-11.022,1.045-15.934,2.143c-5.463,1.308-8.566,2.503-9.312,3.586c-4.409,5.792-8.702,10.633-12.879,14.53
				c-6.572-6.33-11.583-16.212-15.036-29.633c11.772-1.407,21.654-3.043,29.645-4.909c20.729-4.954,34.164-12.29,40.307-22.001
				c4.187-6.484,5.832-13.915,4.933-22.297c-0.062-0.59-0.162-1.175-0.247-1.761c3.754,0.165,7.605-0.216,11.566-1.178
				c-0.992,16.199-0.951,29.27,0.117,39.209c0.626,5.827,1.565,11.253,2.828,16.292c4.01,15.948,11.393,27.151,22.145,33.61
				c6.768,4.159,17.574,5.8,32.424,4.921c11.423-0.652,21.147-2.414,29.172-5.289c3.884-1.278,7.245-3.434,10.081-6.471
				c7.364-7.688,10.099-20.336,8.207-37.949c-0.61-5.679-3.466-18.879-8.563-39.596c-2.269-1.049-4.335-1.545-6.195-1.49
				c-4.196-0.267-9.205-0.088-15.027,0.537c-14.062,1.511-20.908,3.324-20.537,5.438c4.818,19.455,7.606,32.015,8.359,37.679
				c1.922,13.875,0.936,24.758-2.959,32.644c-10.076-9.548-16.176-24.194-18.297-43.938c-1.067-9.94-0.73-28.87,1.011-56.786
				l11.757-4.928c24.361-9.944,42.369-18.847,54.023-26.708c3.73-2.697,5.486-5.115,5.256-7.245
				C384.286,136.957,382.029,135.009,377.79,133.667z M210.041,232.181c-1.427,1.446-3.142,2.852-5.15,4.217
				c-0.665,0.502-1.14,0.769-1.423,0.799c-2.419,1.554-4.672,2.657-6.756,3.312l-0.403,0.26c-3.603,1.25-7.319,2.08-11.153,2.491
				l-2.558,0.275c-0.698-3.805-1.242-7.55-1.639-11.246c-1.48-13.775-0.796-26.78,2.059-39.014
				c2.325-10.449,6.046-18.607,11.163-24.475c6.326,4.062,11.629,9.635,15.912,16.717c4.279,7.083,6.818,14.32,7.611,21.705
				C218.788,217.308,216.233,225.626,210.041,232.181z"/>
			<path class="st0" d="M786.937,163.896c4.186-6.484,5.832-13.915,4.932-22.297c-0.885-8.236-3.894-16.176-9.024-23.813
				c-5.129-7.639-11.151-13.529-18.061-17.673c-5.826-3.394-12.722-5.383-20.684-5.966c-11.734-0.894-24.377,0.463-37.923,4.074
				c-8.118,2.023-14.678,5.817-19.682,11.382c-0.541,0.596-1.066,1.214-1.579,1.849c-0.407-0.157-0.831-0.312-1.284-0.462
				c-4.319-1.403-9.389-1.794-15.21-1.168c-12.218,1.312-18.763,5.249-19.637,11.809c-1.167,7.884-4.188,17.188-9.069,27.912
				c-2.325,5.136-6.766,13.948-13.325,26.432c-12.653-25.506-29.031-44.867-49.126-58.083c-4.328-2.838-10.187-3.862-17.57-3.068
				c-3.979,0.427-7.761,1.338-11.345,2.725c-6.619,2.581-9.73,5.716-9.334,9.409c0.184,1.704,1.276,3.17,3.272,4.391
				c3.871,2.601,7.468,5.305,10.786,8.108l0.707,0.569c1.602,1.328,3.215,2.814,4.835,4.426c-2.637-0.42-5.664-0.456-9.105-0.085
				c-3.979,0.427-7.83,1.346-11.558,2.749c-6.494,2.423-11.32,4.308-14.479,5.65l-0.617,0.282c-0.964,0.394-2.07,0.799-3.316,1.219
				c-2.372,0.686-5.021,1.4-7.959,2.149c-3.363,0.791-6.502,2.352-9.411,4.674c-3.448,2.669-5.005,5.568-4.67,8.69
				c0.122,1.138,0.531,2.243,1.219,3.317c3.34,5.676,10.335,7.941,20.988,6.797c3.549-0.382,7.9-1.352,13.049-2.911
				c1.364,10.238,2.004,24.633,1.918,43.17c-0.486-0.244-1.005-0.476-1.558-0.695c-4.275-1.697-9.326-2.231-15.149-1.606
				c-6.392,0.687-11.177,2.278-14.357,4.775c-5.697,4.491-11.51,8.565-17.437,12.218c-3.252-12.868-5.682-28.123-7.288-45.768
				c-1.603-18.934-2.012-38.791-1.226-59.564c0.12-2.886-2.221-5.29-7.025-7.22c-4.207-1.704-9.223-2.242-15.045-1.616
				c-12.782,1.373-19.347,5.816-19.688,13.322c-0.837,21.641-0.32,42.489,1.547,62.547c2.275,25.186,6.984,46.305,14.133,63.35
				c1.001,2.625,4.431,4.48,10.297,5.574c4.399,0.821,9.763,0.606,16.094-0.651c8.997-1.828,19.867-6.299,32.609-13.416
				c7.842-4.279,15.849-9.717,24.018-16.316c0.008,16.87,0.436,29.295,1.289,37.245c0.442,4.118,3.344,7.039,8.701,8.764
				c4.156,1.276,8.653,1.655,13.483,1.137c4.687-0.504,8.927-1.821,12.721-3.953c5.009-2.838,7.295-6.316,6.854-10.434
				c-1.053-9.801-1.479-24.803-1.28-45.013c0.201-20.204-0.241-35.352-1.326-45.437c-0.611-5.703-1.514-11.087-2.662-16.199
				c14.888,20.987,26.152,48.677,33.769,83.11c1.254,6.333,8.487,8.789,21.697,7.37c13.773-1.48,20.392-5.424,19.849-11.832
				c-0.718-10.697,1.396-22.417,6.352-35.164c2.243-5.844,7.476-16.676,15.688-32.503c0.473-0.913,0.926-1.809,1.384-2.708
				c0.122,2.191,0.301,4.389,0.536,6.595c0.764,7.104,2.092,14.144,3.993,21.123c4.595,16.03,11.536,27.139,20.822,33.322
				c3.867,2.603,9.078,4.272,15.623,5.002c5.661,0.543,12.244,0.337,19.76-0.614c8.379-0.899,15.059-2.264,20.034-4.092
				c11.909-4.15,23.008-13.173,33.298-27.066c0.38-0.473,0.557-0.848,0.525-1.135c-0.229-2.13-5.418-2.936-15.562-2.423
				c-5.714,0.327-11.024,1.043-15.934,2.143c-5.463,1.308-8.567,2.503-9.313,3.587c-4.408,5.791-8.7,10.632-12.878,14.53
				c-6.573-6.332-11.583-16.214-15.036-29.634c11.773-1.408,21.655-3.043,29.645-4.909
				C767.359,180.943,780.793,173.607,786.937,163.896z M737.321,175.477c-0.668,0.501-1.141,0.768-1.425,0.798
				c-2.417,1.553-4.67,2.657-6.756,3.312l-0.402,0.26c-3.603,1.25-7.319,2.079-11.154,2.492l-2.556,0.274
				c-0.699-3.804-1.242-7.55-1.64-11.246c-1.48-13.775-0.796-26.78,2.058-39.014c2.325-10.449,6.047-18.606,11.164-24.475
				c6.326,4.062,11.629,9.635,15.912,16.717c4.28,7.083,6.817,14.32,7.611,21.705c1.083,10.086-1.471,18.405-7.663,24.959
				C741.043,172.704,739.33,174.11,737.321,175.477z"/>
		</g>
	</g>
</g>
<g id="slogan">
	<g id="sloganF">
		<path class="st7" d="M359.26,358.606c-0.6,0.601-1.281,0.899-2.043,0.899c-0.327,0-0.818-0.054-1.472-0.164
			c-0.654-0.108-1.172-0.163-1.553-0.163c-2.289,0-5.342,0.465-9.156,1.395c-4.524,1.149-7.575,1.805-9.155,1.969l-1.717,15.422
			c-0.11,1.095-0.164,2.024-0.164,2.79c0,1.203,0.409,1.805,1.226,1.805c0.217,0,0.462-0.027,0.736-0.082
			c5.232-1.308,9.019-1.962,11.363-1.962c3.378,0,4.523-0.054,3.434-0.163c1.089,0.109,1.962,0.653,2.616,1.635l0.245,2.043
			c-0.164,0.382-0.437,0.572-0.817,0.572c-0.382,0-0.886,0.056-1.512,0.164c-0.627,0.109-1.104,0.163-1.431,0.163
			c-4.688,0-9.973,0.899-15.859,2.698c-0.382,1.798-0.572,5.804-0.572,12.017c0,5.123,0.19,7.984,0.572,8.583
			c0.217,0.327,0.477,0.654,0.777,0.981c0.299,0.326,0.449,0.6,0.449,0.817c0,0.382-0.3,0.803-0.899,1.267
			c-0.601,0.463-1.063,0.695-1.39,0.695c-0.055,0-0.873-0.438-2.453-1.309c-1.145-2.996-1.717-6.948-1.717-11.853
			c0-3.869,0.313-9.605,0.94-17.208c0.625-7.603,0.94-13.338,0.94-17.208c0-0.817-0.382-1.279-1.145-1.39
			c-1.199-0.217-1.908-0.408-2.125-0.572c-0.817-0.544-1.226-1.034-1.226-1.471c0-0.545,0.245-1.09,0.736-1.636
			c0.217-0.108,0.899-0.189,2.043-0.245c0.926-0.054,1.553-0.271,1.88-0.653c0.108-0.436,0.164-0.845,0.164-1.227
			c0-0.817,0.544-1.553,1.635-2.207c0.871-0.49,1.607-0.736,2.207-0.736c0.544,0,0.844,0.355,0.899,1.063c0,0.545,0,1.117,0,1.717
			c0.108,0.382,0.299,0.653,0.572,0.817c2.561-0.545,5.15-1.09,7.766-1.636c3.106-0.599,5.723-0.898,7.848-0.898
			C355.009,355.337,357.462,356.428,359.26,358.606z"/>
	</g>
	<g id="sloganA2">
		<path class="st7" d="M383.539,412.887c0,0.762-0.6,1.144-1.798,1.144c-1.308,0-2.099-0.545-2.371-1.635
			c-0.055-0.163-0.082-1.226-0.082-3.188c0-0.545-0.082-0.981-0.246-1.309c-3.053,2.235-6.349,3.352-9.891,3.352
			c-2.453,0-4.823-0.682-7.112-2.043c-2.616-1.525-3.924-3.434-3.924-5.723c0-2.234,1.553-4.414,4.66-6.54
			c2.833-1.962,5.449-2.942,7.848-2.942h8.093c0.327-0.327,0.49-0.899,0.49-1.717c0-3.65-0.3-6.403-0.899-8.257
			c-0.981-3.106-2.917-4.659-5.804-4.659c-2.072,0-3.979,1.308-5.722,3.924c-1.582,2.398-2.371,4.688-2.371,6.867
			c0,0.109,0,0.272,0,0.49s0,0.354,0,0.408c0,0.438-0.219,0.654-0.654,0.654c-0.545,0-1.145-0.327-1.798-0.98
			c-0.654-0.654-0.981-1.227-0.981-1.717c0-1.525,0.462-3.446,1.39-5.764c0.926-2.315,1.934-4.073,3.025-5.272
			c1.361-1.472,3.051-2.207,5.068-2.207c3.106,0,5.968,0.98,8.583,2.942c2.779,2.126,4.196,4.688,4.251,7.685L383.539,412.887z
			 M379.206,399.889c0-2.179-1.69-3.27-5.068-3.27c-2.671,0-5.015,0.463-7.03,1.39c-2.562,1.199-3.842,2.997-3.842,5.395
			c0,1.472,0.681,2.616,2.043,3.434c1.145,0.709,2.506,1.062,4.087,1.062c2.343,0,4.564-0.763,6.663-2.289
			C378.156,404.086,379.206,402.178,379.206,399.889z"/>
	</g>
	<g id="sloganM1">
		<path class="st7" d="M426.864,411.085c-1.145,0.711-2.017,1.065-2.616,1.065c-0.382,0-0.928-0.191-1.635-0.573
			c0-0.874,0-2.348,0-4.425c0-1.912,0-3.388,0-4.425c0-16.824-1.722-25.237-5.163-25.237c-2.044,0-3.819,2.615-5.325,7.848
			c-1.183,4.197-1.774,7.739-1.774,10.627v8.175c0,0.437,0.123,1.05,0.368,1.839c0.245,0.791,0.368,1.377,0.368,1.758
			c0,0.437-0.3,0.872-0.899,1.308c-0.601,0.438-1.118,0.654-1.553,0.654c-0.491,0-1.036-0.34-1.635-1.021
			c-0.601-0.682-0.899-1.268-0.899-1.758v-16.432c0-1.743-0.3-3.95-0.899-6.621c-0.764-3.379-1.689-5.068-2.779-5.068
			c-0.6,0-1.5,0.764-2.698,2.289c-4.087,5.231-6.131,11.663-6.131,19.292c0,0.928,0.108,2.303,0.327,4.128
			c0.217,1.827,0.327,3.176,0.327,4.047c0,1.635-0.682,2.452-2.043,2.452c-0.654,0-1.226-0.273-1.717-0.817
			c-0.218-0.271-0.463-1.498-0.735-3.679c-0.273-1.962-0.409-3.297-0.409-4.005v-19.293c0-5.559,0.654-8.338,1.962-8.338
			c0.544,0,1.104,0.26,1.676,0.776c0.572,0.519,0.858,1.05,0.858,1.595c0,1.145-0.163,2.644-0.49,4.496
			c-0.327,2.398-0.519,3.896-0.572,4.496l0.409,0.408c1.035-2.343,2.07-4.687,3.106-7.03c1.471-2.996,3.215-4.496,5.232-4.496
			c2.833,0,5.285,3.053,7.357,9.156c0.544-0.654,1.226-2.016,2.044-4.088c0.817-2.07,1.553-3.542,2.207-4.414
			c1.035-1.309,2.315-1.962,3.842-1.962c1.472,0,3.106,0.983,4.905,2.949c3.323,3.551,4.986,9.968,4.986,19.251V411.085z"/>
	</g>
	<g id="sloganI">
		<path class="st7" d="M439.453,378.553c0,0.98-0.232,2.452-0.695,4.414s-0.694,3.434-0.694,4.414v18.066
			c0,1.199,0.272,2.834,0.817,4.905c-0.219,0.436-0.519,0.653-0.899,0.653c-2.671,0-4.005-1.279-4.005-3.842v-30.001
			c0.707-0.381,1.39-0.572,2.043-0.572c0.654,0,1.335,0.191,2.044,0.572C438.989,377.545,439.453,378.009,439.453,378.553z
			 M441.005,366.291c0,1.853-0.872,2.779-2.615,2.779c-1.036,0-1.99-0.381-2.861-1.145c-0.872-0.763-1.308-1.635-1.308-2.616
			c0-1.852,0.926-2.779,2.779-2.779c1.089,0,2.029,0.355,2.82,1.062C440.61,364.302,441.005,365.201,441.005,366.291z"/>
	</g>
	<g id="sloganL">
		<path class="st7" d="M453.757,409.698c0,1.416-0.764,2.125-2.288,2.125c-2.399,0-3.57-4.932-3.516-14.796l0.245-36.704
			c0-0.6-0.081-1.457-0.245-2.575c-0.163-1.116-0.245-1.948-0.245-2.493c1.034-0.763,1.907-1.145,2.616-1.145
			c0.762,0,1.524,0.273,2.288,0.817c0.763,0.546,1.145,1.199,1.145,1.962c0,0.546-0.137,1.255-0.408,2.126
			c-0.327,1.091-0.519,1.771-0.572,2.043c-0.654,3.707-0.981,8.884-0.981,15.532c0,10.737-0.027,15.914-0.081,15.532
			c0.163,6.703,0.599,11.744,1.308,15.123c0,0.163,0.123,0.531,0.368,1.104S453.757,409.371,453.757,409.698z"/>
	</g>
	<g id="sloganY">
		<path class="st7" d="M480.162,378.471c-0.455,2.399-0.88,4.797-1.277,7.194c-0.511,2.562-0.767,4.959-0.767,7.193v25.587
			c0,3.65-1.104,6.553-3.311,8.706c-2.207,2.152-5.164,3.229-8.869,3.229c-2.018,0-4.279-0.545-6.785-1.635
			c-2.89-1.199-4.878-2.697-5.968-4.496c-0.273-0.49-0.408-0.98-0.408-1.472c0-1.581,0.762-2.37,2.288-2.37
			c0.327,0,0.682,0.108,1.063,0.327c0.926,0.98,1.852,1.934,2.779,2.86c1.852,1.688,4.195,2.534,7.03,2.534
			c3.597,0,5.994-1.254,7.193-3.76c0.708-1.581,1.062-4.442,1.062-8.584c0-0.545-0.109-1.635-0.327-3.27
			c-0.218-1.361-0.273-2.561-0.163-3.597c-1.526,1.418-2.616,2.316-3.27,2.697c-1.2,0.764-2.508,1.145-3.924,1.145
			c-3.707,0-6.514-1.443-8.42-4.332c-1.69-2.507-2.534-5.694-2.534-9.564c0-7.357,0.108-13.57,0.326-18.639
			c0.218-1.743,1.172-2.616,2.861-2.616c2.07,0,2.997,0.355,2.779,1.063c-1.035,2.834-1.553,9.184-1.553,19.047
			c0,7.63,2.167,11.444,6.503,11.444c2.655,0,4.77-2.044,6.342-6.131c1.191-3.16,1.76-6.349,1.706-9.564v-9.319
			c0.054-0.926,0.123-2.098,0.204-3.515c0.082-1.417,0.967-2.071,2.657-1.962C479.344,376.836,480.27,377.437,480.162,378.471z"/>
	</g>
	<g id="sloganG">
		<path class="st7" d="M537.138,397.027c0,4.47-1.908,8.039-5.722,10.709c-3.488,2.452-7.739,3.679-12.753,3.679
			c-6.539,0-11.309-2.807-14.306-8.42c-2.289-4.305-3.434-10.055-3.434-17.249c0-7.247,1.417-13.95,4.251-20.109
			c3.65-7.793,8.638-11.689,14.96-11.689c0.49,0,1.308,0.218,2.452,0.653c3.16,1.255,5.886,4.088,8.175,8.502
			c2.179,4.143,3.27,8.066,3.27,11.771c0,6.649-1.336,9.973-4.005,9.973c-1.526,0-2.289-0.625-2.289-1.88
			c0-0.217,0.368-1.008,1.104-2.37s1.104-2.453,1.104-3.271c0-3.868-0.738-7.684-2.215-11.444c-1.915-4.904-4.539-7.357-7.874-7.357
			c-3.392,0-6.345,2.044-8.859,6.131c-1.97,3.217-3.296,6.854-3.979,10.914c-0.683,4.061-1.024,7.589-1.024,10.586
			c0,5.722,0.491,9.946,1.472,12.671c1.472,4.251,4.414,7.03,8.829,8.338c1.416,0.437,2.561,0.654,3.433,0.654
			c2.507,0,4.877-0.626,7.112-1.881c2.234-1.253,3.924-2.942,5.068-5.068c1.09-1.962,1.635-3.323,1.635-4.087
			c0-1.198-0.927-1.799-2.779-1.799c-3.761,0-6.758,0.531-8.992,1.595c-2.235,1.062-3.298,1.594-3.188,1.594
			c-1.798,0-2.697-1.443-2.697-4.333c0-0.653,0.354-1.197,1.062-1.635c0.708-0.436,2.698-0.926,5.968-1.471
			c3.106-0.545,5.231-0.818,6.376-0.818c2.18,0,4.033,0.654,5.56,1.962C536.375,393.186,537.138,394.902,537.138,397.027z"/>
	</g>
	<g id="sloganA3">
		<path class="st7" d="M566.24,412.887c0,0.762-0.6,1.144-1.798,1.144c-1.309,0-2.099-0.545-2.371-1.635
			c-0.055-0.163-0.081-1.226-0.081-3.188c0-0.545-0.082-0.981-0.246-1.309c-3.053,2.235-6.349,3.352-9.891,3.352
			c-2.453,0-4.823-0.682-7.112-2.043c-2.616-1.525-3.924-3.434-3.924-5.723c0-2.234,1.553-4.414,4.659-6.54
			c2.833-1.962,5.449-2.942,7.848-2.942h8.094c0.326-0.327,0.49-0.899,0.49-1.717c0-3.65-0.301-6.403-0.899-8.257
			c-0.981-3.106-2.916-4.659-5.804-4.659c-2.072,0-3.979,1.308-5.723,3.924c-1.581,2.398-2.37,4.688-2.37,6.867
			c0,0.109,0,0.272,0,0.49s0,0.354,0,0.408c0,0.438-0.219,0.654-0.654,0.654c-0.546,0-1.145-0.327-1.799-0.98
			c-0.653-0.654-0.98-1.227-0.98-1.717c0-1.525,0.462-3.446,1.39-5.764c0.926-2.315,1.934-4.073,3.024-5.272
			c1.361-1.472,3.052-2.207,5.068-2.207c3.106,0,5.968,0.98,8.583,2.942c2.779,2.126,4.196,4.688,4.251,7.685L566.24,412.887z
			 M561.908,399.889c0-2.179-1.69-3.27-5.068-3.27c-2.671,0-5.015,0.463-7.03,1.39c-2.562,1.199-3.842,2.997-3.842,5.395
			c0,1.472,0.681,2.616,2.043,3.434c1.145,0.709,2.507,1.062,4.088,1.062c2.343,0,4.563-0.763,6.662-2.289
			C560.858,404.086,561.908,402.178,561.908,399.889z"/>
	</g>
	<g id="sloganM2">
		<path class="st7" d="M609.565,411.085c-1.145,0.711-2.017,1.065-2.615,1.065c-0.383,0-0.928-0.191-1.636-0.573
			c0-0.874,0-2.348,0-4.425c0-1.912,0-3.388,0-4.425c0-16.824-1.722-25.237-5.162-25.237c-2.044,0-3.819,2.615-5.325,7.848
			c-1.183,4.197-1.774,7.739-1.774,10.627v8.175c0,0.437,0.123,1.05,0.368,1.839c0.245,0.791,0.367,1.377,0.367,1.758
			c0,0.437-0.3,0.872-0.898,1.308c-0.601,0.438-1.118,0.654-1.554,0.654c-0.49,0-1.036-0.34-1.635-1.021
			c-0.601-0.682-0.899-1.268-0.899-1.758v-16.432c0-1.743-0.3-3.95-0.899-6.621c-0.764-3.379-1.689-5.068-2.779-5.068
			c-0.6,0-1.499,0.764-2.697,2.289c-4.087,5.231-6.131,11.663-6.131,19.292c0,0.928,0.108,2.303,0.327,4.128
			c0.217,1.827,0.326,3.176,0.326,4.047c0,1.635-0.682,2.452-2.043,2.452c-0.654,0-1.227-0.273-1.717-0.817
			c-0.219-0.271-0.464-1.498-0.735-3.679c-0.273-1.962-0.409-3.297-0.409-4.005v-19.293c0-5.559,0.654-8.338,1.962-8.338
			c0.544,0,1.104,0.26,1.676,0.776c0.572,0.519,0.858,1.05,0.858,1.595c0,1.145-0.163,2.644-0.49,4.496
			c-0.327,2.398-0.519,3.896-0.572,4.496l0.408,0.408c1.035-2.343,2.07-4.687,3.106-7.03c1.472-2.996,3.215-4.496,5.232-4.496
			c2.833,0,5.285,3.053,7.356,9.156c0.545-0.654,1.227-2.016,2.044-4.088c0.817-2.07,1.554-3.542,2.207-4.414
			c1.035-1.309,2.315-1.962,3.842-1.962c1.472,0,3.106,0.983,4.905,2.949c3.323,3.551,4.986,9.968,4.986,19.251V411.085z"/>
	</g>
	<g id="sloganE">
		<path class="st7" d="M638.666,402.423c0,2.398-1.608,4.551-4.823,6.458c-2.889,1.743-5.613,2.616-8.175,2.616
			c-7.303,0-10.954-4.632-10.954-13.897c0-4.087,0.736-8.474,2.208-13.161c1.962-6.103,4.468-9.155,7.521-9.155
			c2.615,0,5.477,1.321,8.583,3.964c3.106,2.645,4.66,5.273,4.66,7.889c0,3.38-1.363,6.323-4.088,8.829
			c-2.726,2.507-5.804,3.76-9.237,3.76c-0.327,0-1.021-0.271-2.084-0.817c-1.063-0.544-1.786-0.817-2.167-0.817
			c-0.709,0-1.062,0.219-1.062,0.654c0,6.268,2.07,9.4,6.213,9.4c2.125,0,4.087-0.707,5.886-2.125
			c1.09-0.817,2.289-2.098,3.597-3.842c1.035-1.362,1.717-2.044,2.044-2.044C638.039,400.134,638.666,400.897,638.666,402.423z
			 M633.025,387.381c0-1.906-0.545-3.691-1.635-5.354c-1.091-1.662-2.534-2.494-4.333-2.494c-2.18,0-3.951,1.363-5.313,4.088
			c-1.145,2.289-1.716,4.659-1.716,7.112c0,1.581,0.503,2.901,1.512,3.964c1.008,1.063,2.302,1.595,3.883,1.595
			c2.234,0,4.088-0.953,5.559-2.861C632.343,391.688,633.025,389.67,633.025,387.381z"/>
	</g>
	<g id="sloganA1">
		<path class="st7" d="M307.106,395.065c0,1.745-0.682,2.616-2.044,2.616c-0.545,0-1.118-0.108-1.716-0.327
			c0,2.779,0.681,5.886,2.043,9.319c-0.055,0.709-0.396,1.281-1.022,1.717c-0.627,0.437-1.322,0.653-2.084,0.653
			c-0.654,0-1.39-0.19-2.207-0.572c-0.437-0.871-0.654-2.233-0.654-4.087c0-0.49,0.027-1.39,0.082-2.698c0-1.308,0-2.207,0-2.697
			c0-0.98-0.082-1.635-0.245-1.962c-0.491-0.054-1.186-0.026-2.084,0.082c-0.899,0.109-1.541,0.163-1.921,0.163
			c-2.344,0-6.022,0.327-11.036,0.981c-5.722,0.764-9.02,1.526-9.892,2.289c-0.49,0.382-1.009,2.344-1.553,5.886
			c-0.437,2.889-0.682,5.013-0.736,6.376c-0.273,0.381-0.654,0.572-1.145,0.572c-0.709,0-1.5-0.355-2.371-1.062
			c-0.873-0.709-1.308-1.39-1.308-2.044c0-0.327,0.217-1.062,0.654-2.207c0.436-1.145,0.681-1.853,0.735-2.126
			c0.926-6.049,2.698-12.724,5.313-20.027c7.194-20.437,12.752-30.655,16.677-30.655c4.196,0,7.438,5.342,9.728,16.022
			c0.817,3.76,1.771,10.954,2.861,21.581c0.327,0.273,1.145,0.572,2.452,0.899C306.616,393.976,307.106,394.411,307.106,395.065z
			 M299.177,392.695c-1.363-9.592-2.235-15.396-2.616-17.412c-1.798-9.156-3.707-13.706-5.722-13.652
			c-2.235,0.11-5.042,4.306-8.42,12.589c-1.908,5.232-3.789,10.464-5.641,15.695c-0.327,0.709-0.682,1.772-1.062,3.188
			c-0.219,1.308,0.163,1.962,1.144,1.962c0.327,0,1.989-0.272,4.987-0.817C284.189,393.812,289.966,393.295,299.177,392.695z"/>
	</g>
</g>
</svg>
