<?xml version="1.0" encoding="utf-8"?>
<!-- Generator: Adobe Illustrator 16.0.0, SVG Export Plug-In . SVG Version: 6.00 Build 0)  -->
<!DOCTYPE svg PUBLIC "-//W3C//DTD SVG 1.1//EN" "http://www.w3.org/Graphics/SVG/1.1/DTD/svg11.dtd">
<svg version="1.1" id="Layer_1" xmlns="http://www.w3.org/2000/svg" xmlns:xlink="http://www.w3.org/1999/xlink" x="0px" y="0px"
	 width="241.333px" height="489.333px" viewBox="0 0 241.333 489.333" style="enable-background:new 0 0 241.333 489.333;"
	 xml:space="preserve">
<path class="cardShape" d="M70.463,17.988v9c39.772,0,95.313,23.09,119.905,65.884c17.373,30.228,18.904,65.224,17.129,89.259
	c-1.99,26.946-8.645,47.99-10.311,51.402c-0.881,1.695-10.207,20-15.957,44.421c-3.514,14.924-4.963,29.076-4.309,42.065
	c0.844,16.704,5.178,31.531,12.879,44.07c14.324,23.315,24.408,41.69,27.074,55.583c2.316,12.073-1.02,19.743-11.896,27.356
	c-5.812,4.068-14.77,7.823-25.223,10.575c-11.789,3.102-24.742,4.742-37.459,4.742c-21.254,0-60.621-4.853-85.494-37.348
	c-18.24-23.83-26.415-51.064-24.99-83.26c1.276-28.84,10.107-56.975,18.577-80.693c8.88-24.864,18.063-50.576,18.994-79.191
	c1.052-32.311-8.958-63.396-30.603-95.031l-0.428-0.619l-0.504-0.528c-4.353-4.562-15.344-19.263-13.952-32.324
	c0.738-6.931,4.831-12.836,12.513-18.054c8.005-5.437,19.78-8.311,34.054-8.311V17.988 M70.463,17.988
	c-15.568,0-29.308,3.208-39.11,9.866c-37.305,25.339,0,64.052,0,64.052c45.75,66.869,28.157,116.843,10.561,166.113
	c-17.596,49.272-35.898,115.437,7.742,172.45c23.368,30.529,59.65,40.877,92.64,40.877c28.621,0,54.764-7.789,67.844-16.944
	c28.154-19.707,17.596-45.752-12.67-95.023c-30.268-49.271,7.74-121.77,7.74-121.77c4.225-8.447,28.156-87.985-7.039-149.222
	C172.225,43.24,114.144,17.987,70.463,17.988L70.463,17.988z"/>
</svg>
