<?xml version="1.0" encoding="utf-8"?>
<!-- Generator: Adobe Illustrator 16.0.0, SVG Export Plug-In . SVG Version: 6.00 Build 0)  -->
<!DOCTYPE svg PUBLIC "-//W3C//DTD SVG 1.1//EN" "http://www.w3.org/Graphics/SVG/1.1/DTD/svg11.dtd">
<svg version="1.1" id="Layer_1" xmlns="http://www.w3.org/2000/svg" xmlns:xlink="http://www.w3.org/1999/xlink" x="0px" y="0px"
	 width="241.333px" height="489.333px" viewBox="0 0 241.333 489.333" style="enable-background:new 0 0 241.333 489.333;"
	 xml:space="preserve">
<style type="text/css">
<![CDATA[
	.st0{fill:none;stroke:#000000;stroke-width:4;stroke-miterlimit:10;}
]]>
</style>
<g class="cardShape">
	<path d="M121.505,32.371L224.75,243.945L121.505,455.52L18.261,243.945L121.505,32.371 M121.505,11.849L8.327,243.78H8.166
		l0.081,0.165l-0.081,0.165h0.161l113.179,231.932L234.684,244.11h0.161l-0.081-0.165l0.081-0.165h-0.161L121.505,11.849
		L121.505,11.849z"/>
	<rect x="110.398" y="39.763" width="20.5" height="4"/>
	<rect x="106.398" y="49.763" width="28.499" height="4"/>
	<rect x="101.898" y="59.763" width="40" height="4"/>
	<rect x="95.898" y="69.763" width="49.499" height="4"/>
	<rect x="91.898" y="79.763" width="57.999" height="4"/>
	<rect x="87.397" y="89.763" width="66.5" height="4"/>
	<rect x="83.898" y="99.763" width="75.999" height="4"/>
	<rect x="77.398" y="109.763" width="87.5" height="4"/>
	<rect x="71.398" y="119.763" width="99.5" height="4"/>
	<rect x="66.397" y="129.763" width="108.5" height="4"/>
	<rect x="62.898" y="139.763" width="117.499" height="4"/>
	<rect x="59.398" y="149.763" width="125.999" height="4"/>
	<rect x="50.898" y="159.763" width="139" height="4"/>
	<rect x="50.398" y="169.763" width="145" height="4"/>
	<rect x="42.897" y="179.763" width="157.5" height="4"/>
	<rect x="36.898" y="189.763" width="168" height="4"/>
	<rect x="31.898" y="199.763" width="177.5" height="4"/>
	<rect x="28.897" y="209.763" width="186" height="4"/>
	<rect x="24.397" y="219.763" width="195.5" height="4"/>
	<rect x="18.897" y="229.763" width="205" height="4"/>
	<rect x="14.397" y="239.763" width="214" height="4"/>
	<rect x="17.398" y="249.764" width="208.999" height="4"/>
	<rect x="23.398" y="259.764" width="197.5" height="4"/>
	<rect x="26.897" y="269.764" width="190.5" height="4"/>
	<rect x="32.898" y="279.764" width="179.5" height="4"/>
	<rect x="37.898" y="289.764" width="167" height="4"/>
	<rect x="41.898" y="299.764" width="158.5" height="4"/>
	<rect x="44.897" y="309.764" width="151.5" height="4"/>
	<rect x="51.398" y="319.764" width="140.5" height="4"/>
	<rect x="57.898" y="329.764" width="130.499" height="4"/>
	<rect x="61.898" y="339.764" width="120.5" height="4"/>
	<rect x="66.898" y="349.764" width="111.5" height="4"/>
	<rect x="71.898" y="359.764" width="100.499" height="4"/>
	<rect x="76.398" y="369.764" width="92.999" height="4"/>
	<rect x="81.398" y="379.764" width="81.999" height="4"/>
	<rect x="86.398" y="389.764" width="71.499" height="4"/>
	<rect x="91.398" y="399.764" width="62" height="4"/>
	<rect x="93.898" y="409.764" width="53.5" height="4"/>
	<rect x="99.898" y="419.764" width="44.499" height="4"/>
	<rect x="105.897" y="429.764" width="32.5" height="4"/>
	<rect x="109.898" y="439.764" width="24.499" height="4"/>
	<rect x="113.898" y="449.764" width="16.499" height="4"/>
	<path d="M120.398,461.764"/>
	<rect x="114.398" y="29.763" width="12" height="4"/>
	<path class="st0" d="M121.897,21.763"/>
</g>
</svg>
